<svg xmlns="http://www.w3.org/2000/svg" width="360" height="360" viewBox="0 0 360 360">
  <g>
    <animate attributeName="opacity" dur="13s" repeatCount="indefinite" values="0;0;0;0;0;0;0;1;1;0"/>
    <path fill="#bb1122" stroke="#000000" d="M168.464 100.696c-.277.203-.68.168-1.021.131-.183-.02-.338-.208-.52-.184-.228.03-.414.22-.567.392-.143.16-.102.492-.303.568-.448.171-1.07-.107-1.351-.496-.294-.408-.283-1.063-.047-1.507.586-1.1 1.983-1.593 3.164-1.99.786-.265 1.68.008 2.477-.22.544-.155.96-.649 1.514-.766 2.063-.435 4.252-.099 6.315.332 1.6.333 2.981 1.446 4.592 1.721 1.38.236 2.925-.67 4.196-.084 1.082.498 1.356 1.995 2.268 2.762.706.594 1.546 1.038 2.41 1.364 1.434.541 3.593-.29 4.502.945.285.387-.406 1.038-.136 1.435.494.727 1.844.187 2.53.734.51.406 1.148 1.087.953 1.709-.202.642-1.153.762-1.814.888-1.245.236-2.546-.057-3.789-.3-.591-.116-1.121-.587-1.723-.55-.61.039-1.062.663-1.663.771-.75.134-1.616.194-2.279-.182-.21-.12-.457-.351-.419-.59.126-.79 1.95-.628 1.929-1.428-.01-.378-.577-.54-.945-.627-.503-.12-1.036.306-1.54.187-.916-.216-1.775-.818-2.355-1.56-.342-.436-.093-1.265-.559-1.564-.69-.443-1.643.362-2.45.215-.94-.17-1.8-.693-2.583-1.24-.342-.238-.516-.702-.898-.87-.648-.284-1.411-.15-2.118-.123-.435.018-.874.29-1.295.18-.953-.251-1.435-1.427-2.349-1.794-.513-.206-1.107-.296-1.649-.185a4.129 4.129 0 0 0-2.151 1.225c-.175.19-.118.549-.326.701zm37.835 11.786c-.574.45-1.444.256-2.173.259a7.503 7.503 0 0 1-1.807-.2c-.49-.12-.909-.563-1.413-.544-.364.013-.85.129-.988.466-.168.41.189.897.46 1.248.249.319.618.552.999.69.455.163.965.182 1.445.126.517-.06.964-.435 1.481-.49.689-.074 1.377.288 2.066.218.394-.04.736-.358 1.132-.36.452-.005.947.107 1.3.39.49.393.466 1.21.923 1.64.171.163.401.337.635.31.308-.034.552-.324.725-.581.246-.366.17-.88.379-1.267.137-.253.283-.571.557-.66.304-.099.623.14.93.229.265.076.51.28.787.262.408-.027.764-.31 1.104-.54.104-.069.164-.202.28-.25.629-.26 1.372-.246 2.038-.106.335.07.576.444.918.463.388.02.709-.339 1.09-.408.389-.07.858.222 1.184 0 .265-.18.452-.587.355-.892-.14-.435-.738-.547-1.15-.744a4.862 4.862 0 0 0-1.177-.387c-.4-.077-.877.142-1.222-.075-.358-.226-.28-.852-.616-1.11-.293-.225-.77-.063-1.074-.272-.375-.258-.404-.87-.788-1.114-.555-.354-1.307-.181-1.943-.351-.477-.128-.905-.437-1.394-.5-.333-.043-.671.141-1.003.089-.31-.05-.553-.386-.867-.369-.628.035-1.022.839-1.645.923-.427.058-.85-.168-1.256-.312-.624-.222-1.145-.733-1.798-.847-.532-.093-1.16-.142-1.612.153-.325.213-.603.633-.566 1.02.02.218.219.419.42.503.256.107.56-.137.828-.07.418.105.79.39 1.086.703.362.384.442.972.78 1.377.235.28.75.35.844.703.062.233-.065.528-.254.677zm18.807 1.181c.807-.907 2.482-.71 3.63-.312.495.172 1.173.552 1.149 1.077-.022.476-.671.743-1.128.877-.829.242-1.745-.013-2.58-.234-.369-.098-.83-.157-1.042-.475-.173-.259-.236-.7-.029-.933zm3.626-85.607c.495-.606 1.408-1.005 2.18-.873 1.28.219 1.731 2.071 2.932 2.567.967.4 2.22-.306 3.134.203.92.512.93 2.032 1.834 2.571.404.24.983-.046 1.398.173.596.314 1.015.923 1.34 1.513.27.493.885 1.248.464 1.62-1.068.94-2.523-1.926-3.925-1.682-.621.109-.758 1.21-1.384 1.29-.408.052-.78-.313-1.085-.59-.241-.22-.274-.633-.547-.814-1.179-.782-2.802-.432-4.166-.809-.998-.276-2.405-.162-2.921-1.06-.694-1.207-.135-3.03.746-4.109z"/>
    <ellipse cx="223.511" cy="335.849" fill="#bb1122" fill-rule="evenodd" stroke="#000000" stroke-width="1.101" rx="2.559" ry="1.316"/>
    <ellipse cx="189.563" cy="114.29" fill="#bb1122" fill-rule="evenodd" stroke="#000000" rx="2.317" ry="1.032"/>
    <ellipse cx="186.673" cy="93.204" fill="#bb1122" fill-rule="evenodd" stroke="#000000" rx="1.016" ry="2.332"/>
    <ellipse cx="247.275" cy="140.874" fill="#bb1122" fill-rule="evenodd" stroke="#000000" rx="1.515" ry="1.298"/>
    <ellipse cx="244.897" cy="121.394" fill="#bb1122" fill-rule="evenodd" stroke="#000000" rx="1.157" ry="1.113"/>
    <ellipse cx="246.893" cy="124.835" fill="#bb1122" fill-rule="evenodd" stroke="#000000" rx="1.019" ry=".907"/>
    <ellipse cx="248.215" cy="128.307" fill="#bb1122" fill-rule="evenodd" stroke="#000000" rx=".879" ry=".926"/>
    <ellipse cx="247.721" cy="132.564" fill="#bb1122" fill-rule="evenodd" stroke="#000000" rx="1.031" ry=".908"/>
    <ellipse cx="245.517" cy="135.88" fill="#bb1122" fill-rule="evenodd" stroke="#000000" rx=".756" ry=".703"/>
    <ellipse cx="252.512" cy="132.054" fill="#bb1122" fill-rule="evenodd" stroke="#000000" rx=".965" ry=".875"/>
    <ellipse cx="240.593" cy="118.202" fill="#bb1122" fill-rule="evenodd" stroke="#000000" rx=".323" ry=".33"/>
    <ellipse cx="237.308" cy="115.667" fill="#bb1122" fill-rule="evenodd" stroke="#000000" rx=".676" ry=".67"/>
    <ellipse cx="138.386" cy="182.771" fill="#bb1122" fill-rule="evenodd" stroke="#000000" rx="1.276" ry="1.285"/>
    <path fill="#bb1122" stroke="#000000" d="M176.885 1.2c-3.505.324-6.898 1.433-10.381 1.939-5.169.75-10.432.766-15.584 1.623a181.046 181.046 0 0 0-21.865 5.021c-7.307 2.172-14.456 4.893-21.467 7.885-3.213 1.371-6.698 2.409-9.416 4.603-3.054 2.467-4.246 6.77-7.285 9.254-.669.547-1.929.393-2.313 1.166-.415.837.596 1.826.508 2.756-.103 1.093-.62 2.133-1.193 3.069-2.185 3.563-5.667 6.15-8.356 9.351-1.566 1.864-3.505 3.522-4.527 5.733-.98 2.12-.99 4.566-1.375 6.869-.389 2.325-1.937 4.872-.942 7.01.73 1.567 3.578 1.248 4.381 2.779 1.582 3.013-1.298 6.921-.394 10.203.352 1.28 2.253 2.016 2.17 3.342-.04.633-.653 1.187-1.229 1.455-.582.27-1.611-.56-1.926 0-.62 1.105.878 2.618 1.979 3.246.559.319 1.358-.269 1.93.027.848.44 1.504 1.38 1.685 2.319.145.75-.232 1.532-.56 2.222-.307.643-1.364 1.004-1.28 1.711.209 1.744 3.095 1.89 4.06 3.356.425.643.003 1.8.651 2.216.425.273 1.08.064 1.498-.218.52-.35.877-1.001.948-1.623.09-.8-.153-1.733-.717-2.309-.491-.5-1.732-.014-1.996-.664-.288-.71 1.115-1.276 1.056-2.04-.038-.497-.716-.738-.884-1.208-.492-1.369.159-2.96-.25-4.356-.265-.903-1.117-1.558-1.387-2.46-.257-.859.198-1.873-.186-2.682-.244-.515-1.02-.647-1.246-1.17-.212-.49.244-1.126 0-1.6-.255-.496-1.237-.428-1.363-.972-.181-.783.936-1.345 1.148-2.12.149-.542-.128-1.157.065-1.685.15-.415.38-.952.812-1.047.93-.204 2.025.511 2.535 1.315 1.171 1.844-.423 4.472.254 6.548.728 2.23 2.361 4.093 3.926 5.84.375.419 1.267.527 1.287 1.088.028.768-1.615.844-1.646 1.612-.03.708.855 1.146 1.394 1.607.44.376 1.17.428 1.473.922.271.442-.072 1.075.137 1.55.516 1.18 1.83 1.825 2.597 2.858.853 1.147 1.888 2.283 2.207 3.676.139.605-.25 1.238-.168 1.853.087.651.749 1.194.686 1.848-.076.788-.881 1.321-1.236 2.03-.221.44-.573.878-.553 1.37.044 1.08.71 2.113 1.455 2.895.827.869 2.3.908 3.13 1.773.464.482.402 1.36.919 1.784 1.26 1.032 3.263.571 4.699 1.34 1.038.555 1.627 1.784 2.691 2.286.746.352 1.695.073 2.434.438.586.29.85 1.056 1.447 1.322.609.272 1.343.042 1.99.2 2.753.668 5.07 3.081 7.903 3.124 2.346.036 4.275-2.392 6.62-2.388.943.002 1.854.475 2.657.969 2.685 1.65 4.124 4.975 6.903 6.462 1.86.996 4.12.913 6.162 1.446 2.186.57 4.256 1.938 6.515 1.873.674-.02 1.323-1.004 1.908-.67.64.364.09 1.516.436 2.166 1.397 2.628 5.364 3.52 6.273 6.353.381 1.188-1.152 2.582-.59 3.696.472.934 1.748 1.546 2.79 1.441.564-.057.759-1.049 1.326-1.068 1.774-.06 3.71 1.402 4.363 3.052.213.54-.612 1.182-.355 1.702.308.626 1.203.768 1.886.908 1.137.233 2.337-.364 3.479-.154 1.111.204 2.287.572 3.111 1.345.771.724.532 2.288 1.442 2.826.697.413 1.65.148 2.43-.074.73-.207 1.83-.392 1.974-1.138.203-1.048-2.356-1.52-1.977-2.518.3-.79 1.802.034 2.493-.451.718-.505.525-1.91 1.322-2.28.531-.246 1.202.056 1.73.31.983.47 2.433 1.055 2.467 2.144.016.495-1.03.55-1.059 1.045-.12 2.16 3.254 3.05 4.084 5.048.424 1.02.625 2.223.354 3.293-.107.422-.653.649-.738 1.075-.221 1.103.901 2.197.693 3.302-.148.787-1.49 1.23-1.314 2.01.147.656 1.527.409 1.718 1.053.239.804-.577 1.6-1.08 2.271-.483.645-1.035 1.37-1.804 1.61-.522.161-1.146-.468-1.625-.207-.76.413-1.073 1.474-1.125 2.338-.026.415.571.802.4 1.181-.24.53-1.347.155-1.61.674-.23.456.597 1.039.36 1.492-.674 1.291-3.26.38-4.07 1.59-.533.796.398 1.979.054 2.873-.275.718-1.208 1.01-1.576 1.686-.23.421-.07 1.006-.35 1.396-.373.522-1.375.45-1.619 1.045-.394.96.85 2.016.676 3.04-.128.758-1.38 1.21-1.215 1.962.227 1.03 1.661 1.353 2.641 1.744.537.214 1.38-.172 1.709.303.296.426.087 1.164-.281 1.53-.424.42-1.24.021-1.764.306-1.636.887-3.584 2.241-3.8 4.09-.073.617.753 1.023.92 1.623.113.41-.125.881.032 1.277.226.566 1.312.755 1.223 1.357-.099.666-1.699.372-1.727 1.043-.085 2.058 3.544 2.171 5.006 3.622.503.498.892 1.105 1.26 1.71.379.623.57 1.35.967 1.961.684 1.055 1.906 1.751 2.406 2.905.27.62-.042 1.406.256 2.013.27.552 1.011.762 1.305 1.301.439.808.025 1.96.572 2.7.169.227.587.175.744.411.227.343-.09.88.131 1.227.22.345.818.297 1.049.635.393.576-.048 1.494.357 2.062.28.394.994.305 1.27.701.465.669-.146 1.783.365 2.416.219.272.7.159.977.372 1.232.95 2.827 2.245 2.714 3.796-.043.606-1.174.712-1.261 1.313-.142.977.747 1.856 1.361 2.629.837 1.053 1.989 1.821 3.074 2.617a28.051 28.051 0 0 0 3.705 2.322c1.373.709 2.92 1.046 4.282 1.774.977.522 1.821 1.266 2.765 1.847.776.479 1.746.694 2.38 1.35.379.393.396 1.044.759 1.453.707.797 2.096.888 2.635 1.807 1.025 1.748.694 4.033.55 6.054-.05.722-.462 1.39-.5 2.112-.041.799.374 1.583.307 2.38-.083.992-.586 1.901-.871 2.854-.195.652-.203 1.388-.572 1.96-.227.35-.783.43-.951.812-.2.452.104.99.05 1.482-.07.65-.408 1.253-.486 1.902-.089.737-.027 1.485.023 2.225.034.487.353.995.184 1.453-.17.462-.901.54-1.09.994-.199.479.159 1.043.069 1.553-.17.958-.916 1.743-1.124 2.693-.112.515.19 1.113-.054 1.579-.147.28-.588.3-.762.564-.477.726-.173 1.777-.594 2.537-.263.476-.937.659-1.148 1.16-.144.342-.138.76-.02 1.112.115.34.6.493.668.845.094.483-.085 1.051-.416 1.414-.254.28-.825.118-1.052.42-.832 1.106-.595 2.76-.405 4.131.072.513.506.932.567 1.445.094.802.133 1.742-.338 2.397-.178.248-.666.146-.819.41-.242.423.244.996.092 1.46-.16.487-.788.707-.986 1.18-.247.59-.015 1.294-.186 1.91-.138.5-.385.97-.668 1.403-.447.688-1.151 1.183-1.603 1.867-.59.894-.756 2.04-1.416 2.883-.216.276-.463.591-.803.676-.314.078-.669-.363-.951-.203-.384.217-.508.818-.428 1.252.085.461.865.614.9 1.082.036.466-.7.734-.724 1.201-.033.628.802 1.08.8 1.709 0 .397-.254.77-.507 1.076-.293.354-.866.424-1.113.81-.324.507-.13 1.21-.352 1.768-.102.257-.465.426-.441.701.047.543.552 1.158 1.093 1.213.637.066.947-1.355 1.547-1.134.772.283.627 1.578.575 2.398-.058.9-.074 2.375-.963 2.531-.88.155-.873-1.861-1.75-2.027-.496-.094-.997.334-1.338.705-.949 1.033-.848 2.717-1.639 3.875-.368.54-1.078.8-1.4 1.368-.223.39-.439.878-.317 1.31.136.482.67.752 1.063 1.062.467.369.93.856 1.52.936.004 0 .01-.008.013-.004.246.334-.419.722-.691 1.035-.289.331-.587.69-.985.877-.658.31-1.577-.11-2.156.33-.628.476-.773 1.391-.975 2.152-.29 1.096-.523 2.27-.316 3.385.212 1.144.681 2.354 1.55 3.127.659.585 1.715.468 2.487.89.685.376 1.192 1.02 1.854 1.434 1.218.764 2.469 1.564 3.861 1.924 1.218.316 2.516.256 3.771.168 1.283-.09 3.38.51 3.791-.709.412-1.217-2-1.716-2.584-2.861a5.133 5.133 0 0 1-.54-2.551c.04-.79.218-1.652.724-2.26 2.11-2.53 6.85-1.948 8.713-4.666.368-.537.562-1.374.238-1.94-.554-.968-2.991-.219-3.07-1.331-.184-2.599 5.217-1.922 6.658-4.092.33-.496-.077-1.282.272-1.764.674-.932 2.442-.607 3.074-1.568.337-.513.414-1.3.117-1.836-.233-.421-1.076-.247-1.27-.688-.259-.589.028-1.404.47-1.873.329-.35.896-.483 1.374-.433.572.06.938.736 1.502.846 1.42.274 3.06.178 4.299-.565.727-.435 1.173-1.275 1.48-2.064.223-.571-.097-1.301.221-1.825.373-.613 1.115-.941 1.78-1.214 3.145-1.293 7.002-.299 10.035-1.836 2.097-1.063 4.419-2.604 5.125-4.846.1-.32.011-.727-.203-.984-.216-.259-.779-.082-.936-.38-.174-.327-.012-.81.234-1.087.428-.483 1.356-.192 1.828-.631.39-.363.207-1.147.631-1.469.369-.28.929-.063 1.375-.183.539-.145.99-.688 1.545-.641.572.048.885.923 1.46.916 2.67-.034 4.566-2.791 6.673-4.432 2.872-2.236 5.5-4.778 8.088-7.338 2.632-2.604 5.577-5.014 7.553-8.146 1.481-2.35 1.45-5.49 3.072-7.744 2.11-2.93 5.233-5.047 8.281-6.98 1.191-.756 2.798-.822 3.846-1.766.457-.412.433-1.24.94-1.588 1.817-1.25 4.626.015 6.525-1.11 3.625-2.146 5.7-6.283 7.847-9.908 2.257-3.81 3.947-7.983 5.168-12.24.878-3.06.313-6.481 1.514-9.43 2.552-6.266 9.508-10.185 11.7-16.586 1.187-3.467 2.346-7.818.5-10.984-.68-1.166-2.555-.992-3.612-1.83-2.346-1.86-3.14-5.465-5.781-6.875-2.132-1.139-4.839-.312-7.207-.791-1.76-.356-3.763-.414-5.16-1.541-1.1-.887-1.01-2.748-2.043-3.711-1.94-1.809-4.59-2.991-7.22-3.342-.415-.055-.889.44-1.24.211-2.323-1.52-.655-5.66-2.007-8.086-.892-1.6-2.156-3.212-3.84-3.932-.456-.194-1.077.263-1.488-.015-1.666-1.127-1.055-3.998-2.301-5.576-2.167-2.744-5.19-5.029-8.506-6.137-2.688-.898-5.793.667-8.5-.172-1.828-.566-3.456-1.788-4.8-3.15-1.317-1.334-1.614-3.505-3.024-4.739-1.12-.979-2.863-.98-4.051-1.877-1.173-.884-1.697-2.463-2.879-3.335-.577-.427-1.282-.668-1.973-.866-.769-.22-1.628-.057-2.375-.343-.693-.267-1.4-.65-1.851-1.239-.349-.454-.076-1.31-.553-1.627-1.003-.667-2.428-.008-3.605.248-1.471.32-2.749 1.312-4.229 1.586-1.034.192-2.146.326-3.154.026-.839-.25-1.34-1.23-2.186-1.453-1.848-.49-4.049 1.32-5.722.396-1.062-.586-.781-2.44-1.721-3.207-.985-.803-2.382-1.086-3.652-1.092-2.383-.01-4.538 1.48-6.866 1.987-.404.088-.868.386-1.228.181-.422-.24-.275-.95-.555-1.347-.532-.756-1.158-1.654-2.06-1.856-.815-.182-1.67.318-2.399.725-.703.392-1.037 1.376-1.81 1.6-.815.234-1.732-.743-2.512-.41-.439.186-.35 1.06-.813 1.177-.452.115-.786-.702-1.248-.635-1.65.24-2.86 1.965-3.629 3.445-.487.938.297 2.404-.464 3.137-.36.347-1.122-.172-1.493.164-.539.489-.008 1.56-.45 2.137-.543.707-1.5 1.333-2.384 1.213-1.378-.187-1.853-2.16-3.08-2.817-1.775-.95-3.86-1.66-5.863-1.45-2.453.256-4.195 3.329-6.66 3.226-1.727-.072-3.165-1.498-4.461-2.64-1.933-1.706-4.248-3.581-4.74-6.112-.366-1.884 1.12-3.675 1.568-5.541.477-1.981 1.204-3.959 1.192-5.996-.007-1.258.116-2.81-.78-3.694-.517-.51-1.475-.12-2.136-.42-.889-.401-1.403-1.449-2.319-1.783-1.438-.524-3.063-.335-4.588-.199-1.622.144-3.139 1.04-4.767 1.07-.714.014-1.393-.354-2.106-.388-1.138-.055-2.86 1.295-3.406.295-.57-1.048 1.795-1.704 2.193-2.829.243-.684-.139-1.475.045-2.177.373-1.42 1.513-2.528 2.082-3.881.665-1.58.88-3.326 1.541-4.908.591-1.414 1.838-2.563 2.153-4.063.166-.793.407-1.866-.18-2.424-.754-.715-2.08-.146-3.117-.07-1.66.121-3.29.513-4.922.836-1.452.287-3.119.129-4.33.979-.86.603-1.393 1.649-1.7 2.654-.202.663.192 1.427-.046 2.078-.551 1.505-1.54 3.124-3.02 3.742-1.162.486-2.514-.564-3.76-.379-1.98.295-3.54 2.413-5.539 2.317-1.692-.082-3.26-1.225-4.478-2.403-1.778-1.718-2.621-4.2-3.727-6.412-.565-1.13-1.368-2.231-1.478-3.49-.192-2.187.733-4.353 1.476-6.418.732-2.033 2.463-3.68 2.907-5.795.346-1.65-1.056-3.566-.258-5.05 2.044-3.806 7.14-5.003 11.156-6.595.783-.31 1.625-.608 2.465-.552 2.256.148 4.108 2.244 6.367 2.34 1.437.06 2.878-.49 4.16-1.141.84-.426 1.577-1.062 2.211-1.758.353-.387.405-1.054.86-1.314 2.385-1.368 5.603-1.188 8.24-.407 1.232.366 1.857 2.054 3.127 2.258 1.323.214 2.514-1.439 3.836-1.21 1.556.268 3.231 1.375 3.779 2.857.362.98-.81 2.028-.67 3.064.278 2.067 1.617 3.9 2.902 5.541 1.405 1.795 2.856 4.829 5.116 4.535 1.597-.207 2.267-2.464 2.677-4.021.32-1.217.058-2.55-.273-3.764-.821-3.003-3.012-5.47-4.156-8.365-.328-.829-.89-1.677-.77-2.56.22-1.625 1.368-3.1 2.613-4.167 1.286-1.1 3.45-.829 4.666-2.005.423-.409.314-1.202.75-1.594.841-.755 2.179-.635 3.205-1.108 1.713-.788 3.649-1.43 4.88-2.859.678-.788 1.115-1.857 1.161-2.896.041-.924-.941-1.741-.8-2.655.265-1.718 1.957-2.873 2.943-4.304.534-.776 1.271-1.444 1.611-2.323.205-.529.003-1.165.225-1.687.288-.679.732-1.37 1.373-1.733 1.971-1.117 4.657.003 6.74-.888.185-.08.457-.178.471-.38.05-.69-1.234-.85-1.416-1.519-.184-.675.162-1.414.457-2.049.212-.456.473-.959.914-1.2.702-.386 1.686.177 2.393-.2.395-.21.442-.843.84-1.05 1.027-.538 2.491.39 3.47-.231.373-.237.272-.92.643-1.16 1.063-.692 2.694-.973 3.79-.336.295.17.547.61.427.927-.291.767-1.963.227-2.25.995-.246.655.345 1.462.89 1.9.455.365 1.147.544 1.707.383.97-.279 1.204-1.786 2.153-2.13.507-.183 1.078.21 1.613.14.754-.099 1.402-.624 2.148-.772 1.02-.202 2.145.229 3.115-.144.852-.328 2.095-.826 2.116-1.739.03-1.336-1.643-2.767-2.977-2.685-1.069.065-1.039 2.33-2.105 2.425-.992.089-1.394-1.524-2.326-1.875-1.14-.428-2.523.318-3.647-.148-.783-.325-1.643-.908-1.867-1.725-.197-.714.806-1.412.633-2.132-.125-.518-.618-.936-1.102-1.159-1.207-.554-2.662-.359-3.98-.199-1.956.237-4.573 3.342-5.66 1.7-.344-.52.686-1.076 1.193-1.438.584-.417 1.348-.495 2.014-.764.814-.33 1.556-.887 2.421-1.04 2.254-.402 4.57.293 6.858.36 2.101.062 4.244.449 6.306.04 1.055-.21 1.992-.81 2.973-1.25.607-.272 1.36-.361 1.8-.86.44-.498.8-1.25.63-1.892-.235-.892-1.238-1.423-2.053-1.856-.895-.475-2.052-.26-2.951-.726-.454-.236-.71-.76-1.158-1.006-2.406-1.325-5.445-1.12-7.89-2.37-1.179-.6-2.05-1.677-3.153-2.408-2.236-1.48-4.317-3.79-6.992-3.98-.421-.03-.934.12-1.178.465-.315.444.262 1.194-.063 1.63-.363.49-1.12.585-1.73.596-1.554.029-3.371-.247-4.461-1.355-.554-.563-.012-1.816-.652-2.277-.866-.624-2.19.486-3.198.138-.416-.143-.611-.66-1.004-.86-1.359-.69-2.94-1.254-4.45-1.054-.318.042-.533.387-.845.457-1.134.256-2.321-.206-3.484-.183-.687.013-1.658-.373-2.053.19-.266.378.17.916.35 1.343.216.51.971.88.861 1.424-.166.821-2.132.644-2.035 1.476.16 1.362 2.825.615 3.797 1.582.543.54 1.145 1.394.895 2.117-.397 1.145-2.009 1.46-3.184 1.754-.96.24-2.534-.928-2.97-.039-.37.753 1.173 1.229 1.564 1.971.415.789 1.196 1.765.787 2.557-.449.866-1.814 1.045-2.781.914-.658-.09-1.66-.44-1.659-1.104.002-.464 1.118-.302 1.164-.764.058-.569-.684-1.001-1.216-1.21-.625-.246-1.524.528-2.012.068-.73-.688.64-2.303-.074-3.008-1.468-1.45-4.139.134-6.192-.078-1.408-.145-2.83-.357-4.17-.814-.982-.336-1.773-1.158-2.783-1.399-.655-.156-1.45.354-2.021-.004-.159-.099-.081-.416-.246-.504-.46-.244-1.08-.015-1.545.215-.225.111-.293.467-.535.53-.279.071-.614-.045-.83-.235-.605-.53-.307-1.738-.954-2.215-.486-.358-1.583.372-1.8-.191-.364-.943 1.163-1.722 2.017-2.262 3.792-2.396 8.943-5.862 12.914-3.777.503.264.066 1.299.535 1.619.692.471 1.694.058 2.508-.139.928-.225 1.662-1.127 2.615-1.168 1.097-.047 2.016 1.15 3.112 1.078.7-.046 1.934-.245 1.883-.945-.13-1.757-5.086.104-5.018-1.656.044-1.143 2.586.048 3.33-.82.326-.382-.242-1.165.13-1.5 1.145-1.03 3.085-.058 4.618.081 1.935.177 5.314-.941 5.75.952.185.803-1.237 1.164-2.018 1.431-1.455.498-3.496-.865-4.61.196-.345.327-.461 1.077-.132 1.42 1.522 1.58 4.405-.695 6.573-.354 2.025.32 3.694 2.154 5.744 2.203.436.01.807-.415 1.244-.41.922.01 1.704.738 2.607.926 1.424.297 2.91.487 4.354.304.641-.08 1.633 0 1.84-.613.245-.727-1.273-1.135-1.3-1.902-.026-.762 1.46-1.274 1.157-1.975-1.245-2.887-6.188-1.19-9.191-2.12-.958-.297-1.821-.879-2.8-1.099-1.075-.241-2.206-.088-3.3-.224-1.33-.165-2.642-.459-3.957-.717-1.52-.298-3.007-.802-4.549-.963a19.726 19.726 0 0 0-3.861 0z"/>
  </g>
  <g>
    <animate attributeName="opacity" dur="13s" repeatCount="indefinite" values="0;0;0;0;1;1;0;0;0;0"/>
    <path fill="#bb1122" stroke="#000000" d="M188.799 7.377c-1.536 1.307 1.005 4.688-.5 6.03-1.388 1.236-3.956-1.096-5.574-.18-1.073.607-.861 2.432-1.801 3.23-.968.822-2.33 1.087-3.584 1.291-3.34.544-6.771-.41-10.15-.23-2.263.12-4.871 2.154-6.74.875-.525-.359-.639-1.242-.456-1.85.419-1.392 3.863-1.66 3.205-2.955-.988-1.948-4.915-.308-6.43 1.266-.817.849.258 2.635-.55 3.494-1.786 1.897-5.209.73-7.633 1.685-2.948 1.16-5.273 3.585-8.188 4.828-2.758 1.177-6.178.751-8.662 2.432-.578.391-.659 1.334-1.275 1.662-2.03 1.08-5.595-1.477-6.887.426-.25.369.102.955.416 1.271.86.867 2.606.306 3.469 1.168.6.6.817 1.561.814 2.409-.004 1.412-.489 2.91-1.378 4.007-.721.89-1.845 1.452-2.946 1.766-4.499 1.282-9.677-1.493-14.033.213-1.235.484-2.253 1.537-2.963 2.658-.933 1.472-.534 3.556-1.496 5.01-1.027 1.553-3.427 1.92-4.3 3.564-.228.427-.388 1.026-.143 1.444.138.235.634.08.75.328.486 1.043-1.734 2.45-.973 3.314.997 1.132 3.2-1.534 4.467-.717.748.483.041 1.981.703 2.577.382.343 1.024.37 1.523.246.676-.167 1.057-.923 1.668-1.254 1.26-.682 2.628-1.213 4.037-1.465 1.444-.258 3.122.693 4.4-.025.618-.347.553-1.379 1.116-1.807.672-.511 1.713-.264 2.432-.707.617-.38.874-1.195 1.48-1.592.689-.451 1.964-.083 2.33-.82.349-.701-.927-1.483-.717-2.237.445-1.59 2.341-2.37 3.739-3.25 2.396-1.507 6.16-1.055 7.799-3.365.427-.603-.28-1.615.156-2.213.769-1.056 2.33-1.422 3.637-1.465 1.625-.052 3.02 1.722 4.634 1.528 1.376-.166 2.204-1.79 3.528-2.201.605-.189 1.291.089 1.9-.088.832-.243 1.394-1.199 2.256-1.293 1.1-.121 2.433.16 3.172.986.502.561.01 1.592.428 2.219.995 1.494 2.846 2.253 4.49 2.976.993.437 2.144.402 3.16.786.922.348 1.854.747 2.625 1.36.531.424.713 1.248 1.32 1.552.346.173.844-.153 1.158.072.566.404.777 1.231.797 1.926.017.589-.185 1.232-.58 1.67-.262.29-.9.142-1.064.498-.142.307.003.77.27.98.461.364 1.252.35 1.763.059.755-.43.586-1.732 1.258-2.281.426-.349 1.278-.031 1.574-.495.361-.566.243-1.555-.262-1.998-.252-.221-.763.231-1.008 0-.368-.348-.343-1.08-.085-1.517.158-.27.533-.395.845-.408 1.31-.059 2.597 2.128 3.678 1.388.338-.231.238-.887.012-1.228-1.182-1.785-4.22-1.17-5.936-2.45-.335-.25-.431-.759-.789-.976-1.141-.693-2.892.046-3.926-.799-.854-.698-.503-2.275-1.29-3.047-.741-.725-2.25-.335-2.887-1.152-.432-.554-.632-1.48-.28-2.088.532-.915 1.911-1.436 2.942-1.195.573.134.615 1.13 1.172 1.322.5.173 1.069-.474 1.564-.285 1.217.462 1.347 2.32 2.408 3.076 3 2.135 8.369.549 10.447 3.588.83 1.212-.779 3.062-.177 4.402.542 1.209 2.074 1.65 3.074 2.52.566.492 1.052 1.08 1.654 1.527.38.282 1.175.25 1.223.72.046.455-.944.47-1.016.92-.11.693.65 1.248 1.045 1.827.299.437.47 1.187.996 1.236.37.035.48-.679.848-.722 1.014-.12 1.916 2.002 2.73 1.386.594-.449-1.011-1.727-.43-2.191.404-.322 1.067 1.01 1.415.629.554-.609-.596-1.603-1.21-2.153-.516-.463-1.938-.122-1.915-.816.012-.356.654-.393 1.008-.352 1.587.186 2.659 3.383 4.04 2.58.865-.502.428-2.178-.148-2.996-.691-.982-2.806-.3-3.328-1.382-.14-.29.367-.624.266-.93-.251-.757-1.778-.665-1.9-1.453-.064-.41.308-.926.712-1.022.835-.198 1.447 1.488 2.264 1.225.52-.168.284-1.137.713-1.475.599-.47 1.474-.424 2.234-.482 1.029-.078 2.105-.121 3.09.187.62.195 1.411.416 1.664 1.014.298.705-1.024 1.67-.512 2.238.5.556 1.815-.893 2.227-.27.292.442-.936.866-.793 1.376.148.528 1.281.268 1.443.793.109.351-.574.624-.498.984.158.74 1.49.726 1.762 1.432.136.354-.302.768-.174 1.125.185.515.709.915 1.227 1.094.875.302 1.896-.471 2.773-.174 1.252.424 1.718 2.258 2.994 2.601.924.249 2.066.05 2.819-.54.437-.344.194-1.278.697-1.516.85-.403 1.868.336 2.73.71 1.002.436 1.706 1.5 2.768 1.754 1.406.337 3.07.318 4.318-.412.622-.363.537-1.595 1.235-1.773.883-.226 1.538 1.273 2.449 1.22.687-.039 1.043-1.095 1.73-1.124.377-.017.952.158.998.533.059.474-.92.507-1.062.963-.54 1.724 1.264 3.475 1.22 5.281-.07 2.968-.135 6.673-2.417 8.572-1.494 1.243-3.875.757-5.805.535-1.66-.19-3.088-1.63-4.758-1.58-2.096.063-3.749 2.204-5.842 2.338-3.6.231-6.875-2.526-10.478-2.705-.574-.028-1.16.448-1.703.264-.84-.284-1.04-1.544-1.844-1.92-1.557-.728-3.686.558-5.143-.354-.528-.33-.424-1.26-.931-1.623-1.084-.776-2.617-1.022-3.926-.77-2.16.418-4.879 1.492-5.537 3.59-.265.845 1.186 1.592 1.004 2.458-.229 1.085-1.345 1.953-2.395 2.312-.699.24-1.508.01-2.203-.24-1.091-.394-1.82-1.508-2.904-1.92-2.005-.76-4.383-.097-6.37-.904-.59-.24-1.254-.56-1.542-1.127-.355-.7.54-1.784 0-2.352-.65-.682-1.893.01-2.823-.14-1.037-.168-1.991-.741-3.037-.842-1.06-.103-2.135.425-3.185.248-2.336-.393-5.163-.894-6.514-2.84-.241-.348-.26-.89-.068-1.268.606-1.194 2.756-1.002 3.365-2.195.275-.538.196-1.277-.088-1.81-.215-.404-1.085-.362-1.1-.819-.033-1.01 2.11-.975 2.309-1.967.067-.332-.134-.818-.46-.908-.864-.236-1.464 1.835-2.267 1.44-.548-.27.184-1.324-.164-1.827-.177-.256-.53-.413-.841-.408-1.294.02-2.18 1.493-3.436 1.803-2.084.515-4.307-.227-6.441.01-1.366.151-2.66 1.07-4.024.896-.7-.089-1.187-.86-1.885-.963-2.157-.318-4.305.712-6.437 1.168-1.04.223-2.096.408-3.098.766-1.288.46-2.455 1.207-3.705 1.762-1.273.565-2.625.953-3.861 1.595-.288.15-.51.427-.82.522-2.613.804-5.614 1.147-8.196.252-.584-.203-.485-.357-1.066-.569-.46-.167-1.445-.13-1.878.097-1.567.824-1.641 2.468-2.956 3.653-2.423 2.185-6.17 2.502-8.59 4.69-1.506 1.362-2.686 3.142-3.441 5.027-.37.923-.013 2.067-.48 2.944-.767 1.436-2.276 2.345-3.567 3.336-1.118.857-2.338 1.586-3.59 2.232-1.473.76-3.346.822-4.586 1.922-1.09.966-1.097 2.803-2.16 3.799-.768.718-2.114.612-2.838 1.375-1.315 1.384-1.073 3.757-2.229 5.277-.884 1.163-2.49 1.608-3.433 2.725-1.362 1.613-1.292 4.38-3.049 5.55-.235.157-.613-.075-.842.09-.986.715-1.659 2.125-1.498 3.332.105.788 1.246 1.095 1.514 1.844.192.536.238 1.19 0 1.707-.337.729-1.59.796-1.834 1.56-.296.924.72 1.852.709 2.82-.018 1.661-.725 3.254-1.32 4.804-.544 1.412-1.71 2.58-2.04 4.056-.07.315.12.659.026.967-.459 1.502-2.536 2.278-2.735 3.836-.159 1.25 1.663 2.307 1.352 3.527-.146.573-1.09.62-1.35 1.15-.82 1.675-.924 3.845-.263 5.589 1.16 3.063 5.21 4.21 6.851 7.047 1.438 2.485.814 5.865 2.36 8.285 3.03 4.742 7.29 9.84 12.793 11.02 4.037.864 7.745-3.436 11.873-3.53 2.748-.063 5.264 2.192 8.006 1.986 5.138-.385 9.25-4.804 14.28-5.92 2.896-.642 6.322-1.872 8.89-.388 2.541 1.468 1.461 6.449 4.06 7.814 3.264 1.715 7.575-2.795 10.977-1.371 2.15.9 3.663 3.298 4.252 5.555 1.47 5.641-3.971 11.672-2.495 17.312 1.54 5.881 8.004 9.237 11.114 14.461 2.512 4.22 6.237 8.556 5.988 13.461-.048.94-1.31 1.513-1.402 2.45-.318 3.201 3.462 5.964 3.054 9.156-.44 3.443-4.563 5.444-5.672 8.734-1.644 4.881-3.03 10.618-1.14 15.41.496 1.258 2.106 1.722 2.98 2.754 2.545 3.006 4.787 6.324 6.477 9.88.612 1.29.953 2.695 1.293 4.08.474 1.933.532 3.954 1.033 5.88.758 2.915 1.376 5.978 2.969 8.535 1.252 2.01 3.74 3.045 4.992 5.055 1.076 1.726.747 4.166 2.008 5.763.85 1.078 2.912.968 3.468 2.223.315.71-.328 1.523-.384 2.297-.09 1.223-.504 2.595.072 3.678.838 1.573 2.617 2.796 4.379 3.07 2.31.358 4.389-1.696 6.691-2.096 3.105-.54 6.326.054 9.448-.383 1.775-.248 3.6-.51 5.226-1.263 5.26-2.44 9.735-6.383 14.041-10.264 1.072-.966 1.753-2.34 2.903-3.21 1.076-.817 2.677-.846 3.626-1.806 1.248-1.26 1.952-3.053 2.32-4.789.339-1.593-1.058-3.525-.16-4.882 1.782-2.692 6.934-1.036 9.034-3.487 1.85-2.16 1.958-5.496 1.814-8.336-.108-2.133-2.466-4.01-1.988-6.092.425-1.852 2.386-3.033 3.955-4.105.848-.58 2.117-.458 2.844-1.184.401-.4.27-1.154.656-1.57.311-.334.997-.222 1.223-.619.219-.385-.32-.946-.092-1.326 1.813-3.015 6.898-2.09 9.643-4.291 1.74-1.397 3.193-3.294 3.982-5.381 2.03-5.375 3.813-11.93 1.467-17.176-.415-.928-1.886-.978-2.438-1.832-1.073-1.66-1.358-3.81-1.3-5.787.024-.856.732-1.614.706-2.47-.063-2.128-2.2-3.898-2.117-6.024.188-4.784 3.292-9.063 5.81-13.135 2.853-4.611 6.573-8.663 10.372-12.531 1.71-1.741 3.586-3.327 5.555-4.77 1.017-.745 2.29-1.139 3.214-1.996 2.346-2.173 4.09-4.959 5.668-7.74 2.736-4.822 4.832-10.025 6.479-15.318a31.836 31.836 0 0 0 1.295-6.286c.177-1.774.92-3.837-.026-5.35-.437-.7-1.429-1.328-2.222-1.097-.563.164-.436 1.16-.91 1.504-4.691 3.408-11.133 4.02-16.776 2.692-1.815-.427-3.25-.884-4.467-2.297-2.239-2.601-3.013-6.274-5.32-8.815-2.534-2.79-6.7-3.82-9.076-6.748-2.072-2.554-1.927-6.518-4.129-8.96-1.116-1.24-3.285-1.232-4.3-2.554-1.75-2.277-.97-5.767-2.342-8.29-1.246-2.293-3.791-3.663-5.165-5.881-.75-1.211-.939-2.703-1.617-3.955-1.098-2.03-2.667-3.766-3.931-5.696-.933-1.423-1.697-2.958-2.696-4.336-1.98-2.734-7.242-4.464-6.51-7.76.124-.557.179-1.127.733-.992 2.798.681 3.63 5.739 6.386 6.573 1.06.322 1.801-.835 2.866-.528 5.121 1.48 6.233 8.73 10.1 12.4 1.043.99 2.524 1.476 3.484 2.547 1.281 1.43 2.263 3.173 2.869 4.995.31.933-.013 2.017.356 2.93.423 1.048 1.24 1.912 2.044 2.708 1.297 1.283 3.188 1.89 4.4 3.252 1.216 1.365 2.604 4.168 2.73 4.754.124.587 3.297 2.772 4.374 4.59 2.703 4.563.809 11.699 4.827 15.16.858.74 2.256.812 3.357.541 1.406-.345 2.118-2.105 3.478-2.6 1.193-.433 2.579.128 3.801-.212 1.351-.376 2.534-1.217 3.719-1.967.844-.535 1.522-1.32 2.4-1.797 2.479-1.345 6.328-.605 7.942-2.918.692-.992-.692-2.636 0-3.629.994-1.427 3.17-1.583 4.896-1.807.876-.113 1.975.84 2.637.254.578-.51-.413-1.705.062-2.312.476-.606 1.771.008 2.229-.611.489-.662-.575-1.815-.074-2.467.651-.849 2.66.227 3.123-.737.627-1.304-1.897-2.476-1.861-3.923.06-2.44 3.77-4.034 3.458-6.455-.262-2.035-2.493-3.354-4.187-4.51-1.437-.981-3.466-.868-4.855-1.914-1.945-1.464-2.018-5.784-4.452-5.787-1.823-.003-1.718 3.506-3.345 4.328-1.637.826-3.947 1.101-5.498.125-1.826-1.15-.61-5.243-2.666-5.899-.817-.26-1.386 1.492-2.221 1.297-1.104-.257-1.178-1.942-1.875-2.836-2.54-3.258-8.565-5.025-8.36-9.152.07-1.402 1.733-2.871 3.135-2.81 3.336.144 4.185 5.299 6.854 7.306 2.991 2.25 6.257 5.107 10 5.107 1.628 0 2.783-2.659 4.351-2.22 1.649.46 1.372 3.288 2.7 4.369 2.672 2.176 6.324 2.912 9.712 3.543 3.201.596 6.855-1.277 9.766.181 6.216 3.115 7.44 12.038 12.795 16.471.916.759 2.366.756 3.178 1.625 10.528 11.274 2.962 44.925 18.203 42.545 6.277-.98 2.713-12.687 1.799-18.975-2.067-14.21-9.085-27.43-16.112-39.955-7.39-13.172-16.66-25.385-27.033-36.365-10.577-11.197-22.184-21.817-35.457-29.633-15.657-9.22-33.135-15.604-50.855-19.62-10.084-2.286-23.051-9.107-30.924-2.405Zm35.367 23.867c.926.747.108 2.383.008 3.568-.042.5-.502 1.046-.256 1.483 2.176 3.86 9.12 1.848 12.38 4.851.771.712 1.699 1.829 1.384 2.83-.313.995-1.717 1.293-2.735 1.518-2.603.577-5.375.006-7.98-.566-2.442-.537-4.58-2.085-7.014-2.657-1.668-.391-3.418-.743-5.115-.507-1.426.198-2.6 1.336-4.02 1.584-1.756.306-3.617.278-5.345-.159-1.48-.374-3.247-.785-4.094-2.056-.408-.613-.316-1.486-.154-2.205.31-1.38 1.211-2.583 2.084-3.696 1.175-1.498 2.3-3.524 4.164-3.912 1.073-.223 2.021.893 3.096 1.112 1.162.236 3.128-.907 3.552.2.325.848-2.122 1.048-1.918 1.932.212.916 1.98.282 2.662.928.433.41.154 1.373.678 1.656.539.292 1.267-.054 1.805-.347.66-.36 1.534-.88 1.56-1.631.037-1.031-2.313-1.408-1.974-2.383.809-2.328 5.314-3.091 7.232-1.543zm28.943 3.14c1.169.058 2.58-.146 3.452.636.748.671 1.544 2.15.863 2.89-.786.853-2.503-1.45-3.404-.72-.449.363-.258 1.214 0 1.73 1.214 2.432 4.2 3.48 6.517 4.902 1.145.703 2.446 1.12 3.62 1.774 1.28.713 4.035.905 3.724 2.338-.273 1.256-3.458-.722-3.824.511-.304 1.024 1.599 1.415 2.427 2.088 1.096.89 2.472 1.478 3.36 2.574 1.284 1.586 3.823 3.87 2.633 5.528-1.025 1.427-3.514-.262-5.233-.625-2.54-.537-5.45-.624-7.445-2.283-1.162-.967-1.87-2.526-2.098-4.02-.167-1.096.99-2.239.592-3.273-1.33-3.45-6.831-3.632-8.787-6.77-.443-.71.02-1.805-.5-2.46-.624-.788-2.455-.297-2.736-1.26-.35-1.199.952-2.509 2.021-3.153 1.38-.832 3.208-.485 4.818-.406zm22.326 202.009c1.509-1.428 1.684-3.948 3.24-5.323.646-.57 1.736-.463 2.357-1.06 1.327-1.273.653-5.227 2.469-4.934 3.922.63 2.539 7.906 1.717 11.793-.196.927-.98 1.625-1.515 2.407-.395.578-.865 1.104-1.253 1.688-.729 1.1-1.439 2.22-2.009 3.41-1.07 2.236-1.616 4.694-2.627 6.958-2.881 6.455-4.313 14.326-9.766 18.822-.79.65-2.015.438-2.943.868-.729.338-1.215 1.241-2.014 1.324-.847.087-1.65-.493-2.377-.937-.682-.417-1.5-.844-1.8-1.585-.61-1.512.53-3.252.39-4.877-.09-1.05-.973-2.025-.783-3.061.616-3.366 4.95-5.111 5.902-8.397.724-2.494-.924-5.243-.375-7.78.352-1.627 1.114-3.255 2.281-4.442 2.414-2.455 6.605-2.509 9.106-4.874z"/>
    <ellipse cx="162.462" cy="52.186" fill="#bb1122" fill-rule="evenodd" stroke="#000000" rx="3.457" ry="1.719"/>
    <ellipse cx="149.522" cy="46.267" fill="#bb1122" fill-rule="evenodd" stroke="#000000" rx="2.452" ry="2.982"/>
    <ellipse cx="219.875" cy="59.664" fill="#bb1122" fill-rule="evenodd" stroke="#000000" rx="2.37" ry="1.052"/>
    <ellipse cx="195.078" cy="58.455" fill="#bb1122" fill-rule="evenodd" stroke="#000000" rx="3.892" ry="1.086"/>
    <path fill="#bb1122" stroke="#000000" d="M10.742 193.416c1.802 1.024 1.52 4.473 3.476 5.155.386.134.812-.57 1.167-.37 3.181 1.788 2.401 6.99 2.598 10.634.25 4.599.945 10.006-1.81 13.697-1.151 1.543-4.89 4.242-5.275 2.355-2.06-10.077-3.8-20.475-4.454-31.712-.083-1.432 3.05-.468 4.298.24zm110.98-175.209c-.813 1.02.625 2.765.004 3.911-.634 1.17-2.812.955-3.347 2.173-.165.374-.153 1.008.203 1.21 1.404.795 2.949-1.352 4.51-1.763.843-.222 1.782-.04 2.59-.37.915-.374 1.803-.962 2.39-1.758.24-.325.109-.863.399-1.145.55-.535 1.903.018 2.197-.691.463-1.116-.573-2.709-1.669-3.217-2.256-1.048-5.726-.294-7.277 1.65z"/>
    <path fill="#bb1122" stroke="#000000" d="M133.588 17.48c-.481.335-1.387.788-1.153 1.325.286.657 1.799-.554 2.149.071.367.656-.51 1.517-1.116 1.962-.683.502-1.848-.022-2.484.539-.327.288-.134.918-.435 1.234-.73.768-3.026.15-2.943 1.207.054.682.206-.048.287.631.216 1.815-3.825.604-3.181 2.314.724 1.924 3.943-1.202 5.971-1.535 1.08-.178 2.202-.022 3.274-.242.872-.179 1.655-.688 2.527-.868.742-.153 1.552.08 2.266-.174 1.209-.43 3.339-.925 3.16-2.196-.1-.719-1.56-.177-2.061-.702-.481-.504-.112-1.493-.581-2.007-.292-.32-1.039-.075-1.211-.473-.176-.406.683-.834.493-1.234-.375-.787-1.626-.803-2.498-.778-.877.025-1.743.426-2.464.927zm30.693-6.396c-.414.641.323 1.534.757 2.161.652.944 1.543 1.867 2.637 2.21 1.499.471 3.312.328 4.694-.419 1.098-.594 1.367-2.134 2.322-2.94 1.22-1.028 4.666-.762 4.205-2.29-1.413-4.682-11.962-2.83-14.615 1.278z"/>
  </g>
  <g>
    <animate attributeName="opacity" dur="13s" repeatCount="indefinite" values="0;1;1;0;0;0;0;0;0;0"/>
    <path fill="#bb1122" stroke="#000000" d="M194.537 300.824c1.526 2.46 5.262 3.236 8.147 3.003 2.627-.211 4.347-3.177 6.885-3.887 3.998-1.117 8.966 1.877 12.446-.385.805-.523.528-2.467 1.25-2.595.722-.128 4.422-2.702 6.912-3.193 1.614-.318 3.315.525 4.93.213 1.302-.251 2.338-1.314 3.624-1.638 2.275-.575 4.68-.653 7.021-.491 2.167.15 5.183-.47 6.376 1.345.532.81-.936 1.95-.58 2.851.313.79 1.69.72 2.08 1.475.454.878-.906 2.57 0 2.965 1.627.71 2.234-3.027 3.907-3.62.522-.186 1.164.358 1.658.109 1.244-.627.96-4.02 2.258-3.516 1.154.447-.038 2.57-.624 3.659-.93 1.73-5.404 2.405-4.3 4.031.892 1.315 3.119-3.073 4.315-2.027.674.59-1.084 1.711-.81 2.565.218.68 1.52.6 1.715 1.288.28.995-1.311 1.864-1.143 2.884.133.811.868 1.499 1.596 1.882.99.52 2.273 0 3.338.34.676.217 1.14 1.08 1.848 1.055 1.75-.06 2.838-3.748 4.374-2.907.414.227-.192.975-.026 1.417.224.596.65 1.365 1.284 1.414 1.794.138 2.563-2.648 4.202-3.392 1.572-.713 3.685.097 5.102-.89 1.12-.78 1.27-2.428 2.06-3.542 2.425-3.42 4.931-6.899 8.164-9.569.848-.7 2.076-.869 2.871-1.63 3.8-3.634 6.83-8.337 8.393-13.36.229-.735-.056-1.554.097-2.31.344-1.694 1.75-3.13 1.819-4.859.14-3.544-.724-7.45-2.927-10.23-.272-.345-.907-.277-1.149-.643-1.055-1.594.244-3.994-.613-5.702-.984-1.961-1.965-2.381-2.813-4.405-1.536-3.664-.98-8.07-1.663-11.984-.176-1.013-.259-2.322-1.128-2.87-.52-.328-1.396.557-1.837.13-1.597-1.542.915-4.539.245-6.655-.171-.54-.836-.82-1.029-1.353-.494-1.363.932-3.436-.198-4.344-.454-.366-1.315-.118-1.725.297-.77.78-.075 2.243-.515 3.246-.326.745-1.168 1.177-1.511 1.914-.778 1.67-.868 3.588-1.117 5.413-.19 1.393.081 2.85-.286 4.206-.272 1.004-1.083 1.8-1.387 2.795-.103.336-.029.713-.141 1.047-.443 1.32-1.674 2.3-2.052 3.64-.076.267.128.605-.032.832-.465.664-1.446.976-2.255.914-.818-.063-1.618-.607-2.113-1.26-.373-.495.013-1.421-.48-1.796-.568-.432-1.497.329-2.138.018-.692-.336-.837-1.314-1.412-1.825a5.222 5.222 0 0 0-1.647-.991c-.438-.162-.963-.023-1.381-.231-1.17-.584-2.473-1.448-2.843-2.702-.15-.511.174-1.06.376-1.554.307-.753.998-1.322 1.25-2.095.238-.725-.22-1.654.217-2.28.484-.691 1.774-.419 2.286-1.09.326-.429.005-1.131.284-1.592.28-.463 1.264-.453 1.282-.993.023-.712-.888-1.447-1.599-1.417-.629.028-.671 1.334-1.3 1.37-.514.03-.676-.911-1.185-.993-.617-.1-1.132.83-1.742.692-.385-.087-.444-.711-.807-.868-.693-.299-1.516.112-2.264.015-.978-.126-1.991-.296-2.855-.77-.873-.48-1.246-1.747-2.204-2.018-.78-.22-2.154-.316-2.385.46-.264.885 1.746 1.037 1.992 1.928.106.385-.002.905-.312 1.157-1.135.927-3.036-.292-4.387.275-1.546.648-3.047 1.835-3.74 3.362-.221.487.262 1.151-.022 1.605-.223.359-.826.28-1.13.572-.465.449-.517 1.207-.939 1.697-.477.554-1.09 1.002-1.741 1.334-.913.464-1.954 1.119-2.947.869-1.303-.328-1.64-2.286-2.865-2.836-.571-.256-1.283-.325-1.873-.117-.414.146-.567.721-.974.889-.54.221-1.26-.247-1.748.07-.34.222-.21.856-.54 1.095-.827.6-2.32-.298-3.035.432-.41.418.092 1.244-.213 1.744-.49.801-1.86.768-2.33 1.58-.512.886.596 2.455-.229 3.06-.764.561-1.97-1.158-2.769-.648-.93.593.295 2.716-.676 3.24-.398.214-.94-.182-1.262-.5-.45-.442-.102-1.637-.722-1.746-1.599-.281-2.695 2.084-3.284 3.597-.385.988.518 2.261-.008 3.182-.404.709-1.594.614-2.103 1.251-.521.65-.293 1.698-.777 2.376-.514.722-1.32 1.223-2.119 1.605-1.491.712-3.166 1.34-4.812 1.193-.447-.04-.786-.62-1.228-.549-.728.118-.944 1.226-1.631 1.493-.827.321-1.844-.343-2.663 0-.608.253-.77 1.182-1.389 1.407-.961.35-2.059-.519-3.055-.287-2.825.657-5.29 2.58-7.414 4.553-.638.592-.66 2.052-1.527 2.118-.3.023-.558-.354-.634-.645-.154-.588.914-1.338.477-1.76-.337-.328-.997.1-1.349.411-.692.615-1.322 1.636-1.123 2.54.109.5 1.033.517 1.15 1.014.403 1.733-2.19 3.164-2.03 4.936.16 1.768 2.477 2.754 2.872 4.485.121.534.107 1.175-.198 1.63-.493.737-2.163.43-2.32 1.303-.156.874 1.433 1.191 1.725 2.03.261.749-.41 1.658-.079 2.38.23.5.957.595 1.289 1.034.662.877 1.099 1.953 1.282 3.036.153.906-.365 1.852-.178 2.752.31 1.491 1.814 2.567 2.085 4.066.26 1.44.2 3.08-.509 4.36-.278.501-.775 1.005-1.345 1.073-.311.038-.58-.55-.853-.395-.507.286-.493 1.242-.186 1.736zM18.039 125.482c1.465 1.341 3.965-1.333 5.221-2.872.446-.545.177-1.477.628-2.018.53-.636 1.677-.51 2.202-1.152.555-.677.18-1.844.735-2.521.472-.576 1.476-.487 1.98-1.035 1.156-1.253 1.031-3.303 1.996-4.708.974-1.418 2.753-2.158 3.713-3.586.692-1.03 1.265-2.219 1.383-3.453.098-1.034.113-2.295-.591-3.059-.416-.45-1.41.001-1.772-.493-.57-.78-.092-1.949.106-2.893.232-1.103 1.74-3.114.807-3.745-2.116-1.429-3.646 3.787-5.114 5.876-5.375 7.644-18.187 19.35-11.294 25.66z"/>
    <path fill="#bb1122" stroke="#000000" d="M185.361 5.256c-8.724-.106-17.486.526-26.084 1.553-13.456 1.606-26.509 5.968-39.256 10.568-11.255 4.061-22.425 8.714-32.636 14.951-11.429 6.98-22.19 15.291-31.563 24.856-7.76 7.919-15.877 16.27-20.049 26.543-1.092 2.69-3.514 7.059-1.082 8.646.87.567 1.836-2.214 2.672-1.6 1.187.873-1.876 3.089-1.033 4.297 1.157 1.659 4.004.8 6.024.707 3.23-.15 6.941-4.005 9.488-2.013 1.199.937-.414 3.15.154 4.562.216.537.941.755 1.158 1.291.597 1.473-.457 3.311.186 4.764.197.446.839.583 1.045 1.025.322.693-.263 1.66.176 2.285 1.016 1.45 3.92.677 4.84 2.19 2.587 4.256-1.403 9.977-.8 14.922.185 1.51 1.055 2.868 1.333 4.363.484 2.612-.241 5.417.56 7.95.22.694.892 1.183 1.131 1.872 1.064 3.07-.131 6.714 1.209 9.674.476 1.052 1.162 2.392 2.299 2.59.749.13 1.495-.525 2.002-1.092.51-.57.486-1.461.867-2.125.892-1.554 1.78-3.278 3.275-4.265.553-.365 1.5.014 1.924-.495 1.166-1.397-.034-3.674.387-5.445.341-1.438 1.388-2.65 1.707-4.094.545-2.468-.48-5.173.3-7.578.393-1.21.87-2.924 2.116-3.174.504-.1.785.98 1.283.856.906-.227.534-1.972 1.324-2.469.809-.508 2.124.48 2.862-.125.58-.476.125-1.554.533-2.183 1.47-2.268 4.43-3.126 6.404-4.971 1.428-1.336 2.332-3.216 3.9-4.383 1.197-.89 2.858-1 4.055-1.889.878-.651 1.798-1.422 2.188-2.443.208-.545-.316-1.26 0-1.75.565-.876 1.814-1.397 2.851-1.287.434.046.62.707 1.051.775.61.096 1.14-.58 1.756-.586.494-.004.92.494 1.412.448.789-.075 1.305-1.036 2.092-1.13 1.162-.138 2.245 1.118 3.394.897 1.287-.247 1.913-2.744 3.159-2.34 2.142.696.35 4.947 2.03 6.446.793.706 2.484-.242 3.126.603.816 1.076-1.278 3.075-.33 4.037.39.396 1.198-.412 1.664-.11 1.107.72 1.348 2.394 1.37 3.714.022 1.165-.752 2.206-1.093 3.32-.35 1.146-1.536 2.4-.976 3.46.556 1.05 2.198 1.244 3.382 1.132.963-.091 1.579-1.248 2.53-1.42.96-.174 1.974.773 2.894.447.44-.155.483-.941.94-1.033.894-.18 2.007.375 2.478 1.156.436.723-.25 1.694-.125 2.528.198 1.31 1.15 2.425 1.362 3.732.079.49-.188 1.013-.041 1.486.288.932 1.554 1.405 1.72 2.366.193 1.113-.882 2.122-.957 3.25-.085 1.283.784 2.54.592 3.812-.12.79-.903 1.37-1.05 2.154-.167.883.34 1.795.22 2.686-.137 1.02-.895 1.886-1.053 2.902-.234 1.504-1.197 3.909.178 4.56.838.398 1.324-1.904 2.223-1.675 2.015.514 1.41 3.958 2.572 5.684.736 1.092 2.421 1.58 2.723 2.863.196.838-.788 1.608-.76 2.469.034 1.04.833 1.914 1.111 2.918.288 1.038-.129 2.36.566 3.183.479.566 1.717.112 2.094.75.376.636-.661 1.517-.351 2.188 1.836 3.97 8.454 6.04 11.218 6.808 1.916.532.782-4.347-.494-5.87-.377-.451-1.68-.117-2.033-.587-1.638-2.186.77-5.676-.3-8.19-1.278-2.997-3.981-5.386-6.798-7.025-.937-.545-2.346-.085-3.152-.812-1.802-1.625-2.062-4.443-2.535-6.822-.184-.923.69-2.316-.104-2.823-.628-.401-1.438 1.272-2.064.866-1.195-.776-.427-2.888-.1-4.274.518-2.19 2.564-3.794 3.162-5.963.42-1.519-.826-3.559.239-4.72.708-.773 2.327-1.124 3.117-.434.761.665-.735 2.33-.01 3.033.876.85 2.565-.664 3.658-.123.928.46.85 2.117 1.799 2.53.455.197 1.07-.486 1.473-.198 1.086.778-.03 2.865.773 3.932 1.46 1.937 5.304 1.196 6.475 3.32.691 1.255-.02 2.895-.387 4.28-.183.69-1.272 1.343-.89 1.947.373.59 1.456.314 2.095.03.838-.37 1.062-1.546 1.82-2.062 1.239-.842 3.19-.445 4.225-1.527.899-.94.303-2.748 1.164-3.723 2.02-2.286 6.405-1.426 8.336-3.789 1.378-1.685 1.773-4.208 1.465-6.363-.098-.683-.836-1.137-1.012-1.805-.329-1.247.25-2.609-.018-3.87-.226-1.071-.699-2.106-1.318-3.009-2.286-3.33-6.535-5.06-8.605-8.529-.187-.312-.141-.725-.309-1.047-.592-1.135-2.194-1.735-2.398-3-.147-.91.466-1.817.96-2.595.44-.693 1.017-1.338 1.723-1.754.428-.253 1.049-.089 1.436-.4.409-.33.33-1.06.734-1.395.607-.502 1.739-.099 2.262-.688.325-.366-.08-1.09.258-1.445.96-1.01 2.682-1.026 4.072-.941.633.038 1.165.524 1.787.65.341.07.724-.087 1.043.053.305.133.65.37.715.697.103.522-.703.939-.633 1.467.108.812.742 1.702 1.531 1.926.712.2 1.731-.108 2.084-.758.297-.548-.569-1.214-.422-1.819.112-.457.52-.819.914-1.074 1.347-.87 3.041-1.057 4.62-1.338.974-.173 1.998.013 2.962-.209 1.027-.236 2.12-.508 2.934-1.176.415-.34.439-1.04.879-1.345.993-.69 2.344-.617 3.54-.797 1.738-.262 3.708.418 5.259-.41.852-.455.978-1.757 1.793-2.276.445-.283 1.095-.08 1.54-.361.849-.536 1.057-1.776 1.88-2.35.458-.32 1.117-.234 1.59-.53.784-.494 1.154-1.495 1.933-1.995.459-.295 1.233-.097 1.541-.547.61-.89-.477-2.23-.088-3.236.996-2.57 4.392-3.55 5.735-5.957.996-1.786 1.422-3.9 1.527-5.944.053-1.043.007-2.165-.465-3.097-.298-.59-1.02-.862-1.406-1.399-.385-.535-.645-1.156-.879-1.773-.56-1.48-.211-3.377-1.238-4.58-.922-1.08-2.508-1.406-3.887-1.742-1.004-.245-2.11.134-3.096-.178-.45-.143-1.128-.285-1.203-.752-.206-1.296 1.388-2.367 2.53-3.016.403-.23.974.01 1.376-.222.457-.265.55-.948.997-1.229.56-.354 1.27-.488 1.933-.467.6.02 1.215.854 1.72.532.51-.325.606-1.308.249-1.795-.718-.98-2.432-.253-3.592-.614-.786-.244-1.418-1.083-2.24-1.037-1.071.061-1.741 2.039-2.75 1.674-.625-.226-.205-1.39-.647-1.887-.233-.262-.68-.228-.947-.457-.38-.325-.458-.929-.851-1.238-.472-.37-1.657-.04-1.682-.639-.029-.666 1.359-.372 1.805-.869.377-.42.153-1.211.564-1.6.605-.57 1.68-.272 2.396-.695.571-.336.75-1.344 1.41-1.402.887-.078 2.04.645 2.194 1.521.136.778-1.643 1.191-1.371 1.932.173.472 1.269-.091 1.46.373.196.471-1.1.921-.778 1.317.51.626 1.596-.378 2.293-.788.537-.316.836-.966 1.392-1.25 1.126-.574 2.45-.927 3.707-.796 1.152.12 2.476.487 3.174 1.412.39.517.412 1.294.273 1.927-.106.489-.927.774-.81 1.26.225.937 1.562 1.226 2.498 1.455.646.159 1.355-.28 1.994-.092.63.186 1.252.59 1.607 1.143.15.234.294.575.159.818-.177.319-.917.042-1.022.391-.153.508.647.843.924 1.295.364.593 1.171 1.187.965 1.852-.178.57-1.324.3-1.584.837-.3.62-.08 1.516.375 2.034.508.576 1.43.66 2.197.7.664.036 1.347-.132 1.955-.402.56-.248.91-.87 1.485-1.084.66-.245 1.41-.074 2.109-.17.45-.061 1.01.054 1.338-.26.398-.379.464-1.058.39-1.603-.084-.63-.671-1.084-.923-1.668-.273-.63-.257-1.386-.627-1.965-.505-.789-1.32-1.337-2.069-1.9-.452-.34-1.048-.485-1.45-.883-.425-.42-.518-1.106-.95-1.517-.423-.404-1.012-.584-1.53-.856-.483-.254-1.187-.258-1.468-.726-.256-.427-.28-1.115.045-1.49.527-.61 1.646-.09 2.38-.422.552-.25.912-.805 1.42-1.133.341-.22.957-.168 1.083-.553.19-.583-.913-1.037-.829-1.645.102-.729.935-1.146 1.493-1.627.678-.584 1.336-1.423 2.228-1.503.986-.089 1.732 1.096 2.717 1.195.856.086 1.724-.226 2.521-.549.77-.312 1.668-.615 2.114-1.314.28-.439-.034-1.079.187-1.55.497-1.053 1.932-1.469 2.407-2.532.444-.997-.127-2.242.26-3.262.193-.511.95-.765.986-1.31.06-.928-.827-1.676-1.371-2.428-.456-.63-1.112-1.096-1.57-1.723-.282-.385-.818-.773-.718-1.238.07-.32.473-.556.8-.57.895-.04 1.627.793 2.314 1.368.834.7 1.416 1.654 2.127 2.479.469.544.976 1.057 1.41 1.629.4.526.727 1.103 1.094 1.652.95 1.422 1.219 4.712 2.867 4.256.399-.11-.246-.969.066-1.24.602-.523 2.114.962 2.383.21.562-1.57-2.477-1.705-3.592-2.946-.435-.485-.66-1.03-1.01-1.579-.174-.273-.723-.485-.586-.779.303-.646 1.467.55 1.686-.129.665-2.063-3.452-2.628-5.078-4.06-.834-.735-1.753-1.413-2.395-2.32-.374-.53-.234-1.47-.808-1.772-.787-.416-1.742.48-2.631.455-1.25-.035-2.472-.435-3.652-.846-.798-.277-1.472-1.29-2.291-1.084-.423.106-.37.904-.78 1.051-.984.353-2.14-.23-3.04-.76-.454-.267-.622-.894-1.079-1.154-.71-.405-2.114.24-2.394-.527-.416-1.14 2.51-1.711 2.212-2.887-1.732-6.868-12.476-7.137-19.382-8.709-8.443-1.922-17.128-2.764-25.852-2.87Zm-7.441 10.6c.553-.162 1.375.046 1.637.56.375.735-.216 1.718-.725 2.367-.605.772-1.43 1.623-2.33 2.015-1.459.636-2.842.281-4.26 1.007-.544.278-1.402.73-1.97.955-1.413.559-3.521 1.55-4.54.422-.185-.206-.048-.633.16-.815.89-.771 2.505-.912 3.615-1.302.815-.286 1.478-.754 2.259-1.123 1.014-.48 2.094-.24 3.033-.854 1.409-.92 1.506-2.76 3.12-3.233zM108.34 34.55c.408.325.196 1.17-.152 1.556-.492.546-1.344.788-2.073.875-1.752.21-3.954-.282-5.61.331-1.774.659-2.383 2.47-4.208 2.974-.419.116-1.042.182-1.291-.174-.365-.521.05-1.34.408-1.865.961-1.41 2.621-2.354 4.256-2.844 1.914-.573 3.33.007 5.303-.308.929-.148 2.631-1.131 3.367-.545zm198.888 184.152c.747.412 1.729-.345 2.556-.136 1.116.282 1.829 2.069 2.948 1.799.698-.169 1.279-1.137 1.125-1.838-.111-.506-.949-.477-1.291-.865-.428-.485-.403-1.287-.87-1.733-.285-.271-.896-.13-1.076-.478-.204-.392.543-.963.257-1.3-.412-.485-1.424.475-1.91.063-.858-.73.076-2.35-.44-3.352-.464-.901-1.788-1.158-2.224-2.074-.406-.852-.817-2.116-.194-2.826.39-.445 1.397.347 1.773-.11.507-.618.133-1.72-.322-2.377-.9-1.302-3.207-1.007-4.177-2.258-.723-.932-.181-2.466-.855-3.434-.698-1.002-1.963-1.463-3.026-2.064-1.728-.977-3.644-1.579-5.41-2.483-1.771-.908-3.25-2.515-5.191-2.95-.847-.19-1.755.411-2.596.196-2.093-.534-3.289-3.775-5.435-3.53-1.303.148-1.614 2.147-2.734 2.832-.645.395-1.557.218-2.171.66-1.241.893-1.297 3.044-2.66 3.737-.759.386-1.83.418-2.554-.03-1.629-1.006-2.317-3.218-2.625-5.108-.155-.951.782-1.958.437-2.858-.68-1.774-2.52-3.402-4.408-3.611-1.296-.144-2.267 1.318-3.495 1.757-.694.249-1.426.395-2.158.486-.6.074-1.6-.52-1.813.045-.372.987 1.419 1.605 2.324 2.146.747.447 1.852.237 2.47.851.447.444.105 1.43.627 1.783 1.106.746 2.954-1.01 4.001-.182.445.352.61 1.188.315 1.672-.327.535-1.184.444-1.804.534-.964.14-2.56-.907-2.922-.003-.343.857 1.496 1.14 2.01 1.907.704 1.054.1 3.469 1.365 3.548 1.06.067.471-2.584 1.51-2.808 2.146-.462 3.152 3.294 5.23 4.002.986.336 2.141-.333 3.126.01 2.03.707 3.675 2.352 5.066 3.992 1.01 1.192 2.17 2.546 2.26 4.105.057 1.002-.59 1.948-1.143 2.786-.95 1.44-4.289 2.09-3.633 3.685.656 1.596 3.501.484 5.175.066 1.081-.27 1.848-1.867 2.932-1.607 1.686.404 1.39 3.505 2.934 4.295 1.548.793 3.534.31 5.215-.133.892-.235 1.766-.675 2.441-1.303 1.278-1.19 1.164-3.8 2.79-4.43 1.25-.485 2.822.239 3.876 1.066 2.358 1.852 1.75 6.408 4.374 7.858z"/>
    <path fill="#bb1122" stroke="#000000" d="M122.896 159.277c1.112-.724 2.156 1.643 3.426 2.029 1.707.518 3.79-.582 5.343.294 1.955 1.104 2.045 4.158 3.794 5.568 1.422 1.147 3.726.83 5.08 2.057.962.872.6 2.973 1.807 3.45.602.24 1.476-1.176 1.835-.638 3.315 4.968 9.238 5.094 10.61 7.12 1.176 1.738-1.206 3.94-.073 5.706.512.798 2.007.304 2.671.98.894.911.086 3.1 1.253 3.618 1.606.713.177-.485 1.837.093 1.394.485.89 3.068 2.118 3.888.473.316 1.475-.343 1.696.181.718 1.704.286.495-.415 2.206-1.002 2.444.978 5.997-.879 7.876-1.282 1.298-3.71 1.276-5.431.672-6.205-2.175-10.026-8.714-13.778-14.113-1.857-2.673-2.049-6.36-4.169-8.828-.65-.757-1.933-.84-2.482-1.674-.759-1.149-.036-2.895-.775-4.057-1.045-1.64-3.734-1.747-4.73-3.418-.378-.632.015-1.52-.288-2.191-.609-1.349-1.623-2.631-2.92-3.344-.672-.37-1.598.012-2.275-.35-1.206-.644-2.203-1.78-2.772-3.023-.574-1.252-1.637-3.351-.483-4.102zm83.07-5.145c-3.506.106-3.587 6.305-6.476 8.294-1.457 1.003-3.673.477-5.073 1.557-1.528 1.18-1.435 3.864-3.048 4.924-1.863 1.225-4.913-.46-6.615.98-1.07.903-.243 3.072-1.296 3.993-1.414 1.236-3.84 1.798-5.543 1.006-.41-.19-.223-1.179-.675-1.177-1.502.004-1.907 2.453-2.219 3.922-.464 2.186-.39 4.693.645 6.674.705 1.352 2.65 1.687 3.48 2.965 1.166 1.794.057 4.941 1.82 6.155 1.467 1.01 3.754-1.246 5.328-.412.475.252.345 1.116.802 1.4.9.56 2.139.432 3.173.201.57-.127.95-.862 1.532-.844.802.025 1.245 1.134 2.032 1.29.933.183 2.002-1.002 2.808-.5.853.533-.081 2.48.833 2.898 1.436.656 2.753-2.316 4.3-1.992.774.163.806 1.98 1.57 1.78 2.236-.587 1.56-4.472 1.447-6.78-.047-.962-1.218-1.852-.876-2.753.738-1.95 4.668-1.243 5.369-3.206.374-1.049-1.134-2.028-1.133-3.141.001-1.127.24-2.518 1.153-3.179 1.112-.806 3.571 1.132 4.119-.127.674-1.55-2.52-2.337-3.342-3.814-.775-1.392-1.341-2.979-1.394-4.57-.049-1.478.085-3.166 1.01-4.319.604-.752 2.34-.326 2.609-1.253.213-.74-1.55-1.257-1.227-1.956.55-1.193 3.202.54 3.9-.573.25-.4-.094-1.016-.427-1.35-1.11-1.118-3.178-.593-4.495-1.457-1.723-1.13-2.031-4.698-4.091-4.636zm-42.968 52.644c.634-.62.657-1.833 1.451-2.228 1.416-.703 3.184.014 4.732.339 1.742.365 3.713.595 5.03 1.793.335.304.2.976.575 1.228 1.573 1.06 3.922 1.01 5.682.303.876-.352 1.018-1.85 1.936-2.066 1.588-.374 2.984 1.407 4.589 1.7 2.551.466 5.738-1.552 7.78.047.373.29.597.97.35 1.374-.805 1.31-4.366-.522-4.5 1.009-.078.9 1.62.846 2.503 1.041.84.186 1.817-.293 2.58.106.49.256.493 1.1 1 1.322.955.42 2.104-.554 3.116-.3.815.205 2.171.562 2.097 1.399-.083.92-1.619 1.055-2.541 1.104-.925.049-1.74-.67-2.653-.833-1.813-.321-3.682-.14-5.52-.26-3.355-.215-6.871.264-10.053-.822-.978-.334-1.608-1.398-2.6-1.688-1.322-.388-2.758-.069-4.133.024-1.284.087-2.556.685-3.83.498-1.028-.15-1.822-1.092-2.846-1.273-.843-.15-1.937.764-2.564.18-.56-.523.441-1.671.002-2.3-.63-.9-2.989-.035-3.1-1.13-.038-.357.66-.316.917-.567zM254.897 37.85c1-.668 1.785 1.637 2.813 2.262 2.044 1.244 5.221.92 6.569 2.898.295.434.44 1.207.064 1.573-.403.393-1.21-.416-1.684-.112-.501.321-.09 1.434-.636 1.669-1.327.572-2.562-1.76-4.004-1.663-.266.019-.426.371-.69.405-.474.06-1.175-.824-1.379-.392-.358.76 2.018.592 2.077 1.43.032.449-.552.82-.99.915a1.296 1.296 0 0 1-1.168-.385c-.244-.273-.023-.767-.22-1.076-.327-.508-1.237-.51-1.462-1.07-.261-.65-.258-1.752.367-2.069.526-.267 1.124 1.145 1.59.782.893-.696-.432-2.225-.709-3.323-.156-.621-1.07-1.488-.538-1.844zm2.463 10.144c-.458.524.018 1.426.285 2.069.28.676 1.125 1.046 1.328 1.75.294 1.014.15 2.188-.274 3.155-.374.854-1.053 1.644-1.884 2.067-.45.229-1.027.325-1.506.164-.536-.18-.694-1.33-1.233-1.162-.82.257-.346 1.684-.53 2.523-.141.646.118 1.581-.442 1.933-.926.582-2.108-.654-3.2-.73-.982-.068-2.013-.07-2.942.254-.992.345-1.716 1.215-2.627 1.736-.905.518-2.13.585-2.808 1.376-.264.309-.105.85-.362 1.165-.621.76-2.374.459-2.579 1.418-.276 1.295 1.674 2.06 2.397 3.17.59.907.72 2.18 1.578 2.84.536.412 1.314.671 1.969.498.599-.158 1.297-.67 1.34-1.288.039-.548-.925-.754-1.018-1.296-.17-.996 1.196-1.884.973-2.87-.18-.8-1.064-1.268-1.716-1.767-.53-.405-1.951-.334-1.75-.97.354-1.11 2.33.595 3.478.383.416-.076.797-.842 1.129-.58.65.514-.912 1.65-.592 2.413.303.722 1.25 1.342 2.019 1.2.75-.14.667-1.649 1.415-1.8.56-.114.962 1.017 1.502.829.65-.227.94-1.234.796-1.908-.125-.591-1.326-.642-1.316-1.247.006-.396.497-.725.887-.79.494-.082 1.054.205 1.386.58.449.505.145 1.414.557 1.95.449.583 1.2 1.371 1.897 1.132.742-.253.882-1.406.857-2.19-.018-.566-1-1.048-.719-1.54.213-.375.861-.202 1.285-.129.725.126 1.273.804 1.995.947.566.113 1.236.214 1.728-.086.35-.213.282-.829.619-1.062.54-.374 1.286-.367 1.941-.328.636.038 1.27.841 1.832.541.476-.255.614-1.024.48-1.547-.18-.694-1.269-.832-1.55-1.49-.294-.686.18-1.516-.009-2.237-.246-.94-1.672-1.604-1.422-2.543.106-.398.941-.24 1.061-.635.111-.363-.427-.655-.485-1.03-.067-.434.319-.89.177-1.305-.55-1.601-2.06-2.912-3.626-3.555-.715-.294-1.811-.59-2.32-.008zm-80.637 58.988c.841-.352 1.812-.197 2.72-.285.993-.095 2.127-.778 2.98-.262.427.259.704.9.576 1.382-.178.668-1.311.66-1.644 1.266-.24.44.092 1.05-.132 1.499a4.12 4.12 0 0 1-2.183 1.962c-.894.33-1.916.072-2.859-.073-.679-.105-1.544-.041-1.98-.572-.565-.686-.577-1.836-.232-2.655.46-1.095 1.658-1.804 2.754-2.262zm40.319-17.304c.435-.36 1.028-.657 1.59-.592.534.063 1.108.413 1.345.897.494 1.013-.02 2.269-.252 3.372-.364 1.732-1.327 3.293-1.768 5.007-.202.787.387 2.193-.398 2.405-.864.232-1.11-1.408-1.709-2.073-.438-.486-1.119-.798-1.379-1.399-.418-.966-.385-2.137-.122-3.157.433-1.682 1.356-3.352 2.693-4.46zm.802 21.902c1.499-1.026 4.163-.048 5.267 1.394.762.997-.502 2.604-.022 3.763.183.442.99.53 1.02 1.008.095 1.534-2.312 2.182-2.857 3.619-.4 1.055-.384 2.267-.194 3.379.214 1.248 1.56 2.243 1.465 3.506-.039.51-.321 1.124-.797 1.31-.403.16-.842-.209-1.25-.352-.587-.206-1.456-.162-1.716-.726-.296-.638.74-1.32.63-2.014-.08-.494-.373-1.238-.873-1.221-.446.014-.26 1.11-.705 1.136-.696.042-.999-1.006-1.307-1.632-.763-1.547-2.558-3.922-1.233-5.027.442-.37 1.078.99 1.578.705 2.577-1.473-1.456-7.173.994-8.849zm14.516 42.396c-.152 1.11.024 2.404.717 3.285 1.056 1.343 3.047 2.935 4.61 2.243.819-.362.914-1.697.753-2.578-.115-.624-1.135-.884-1.147-1.518-.008-.453.401-.862.778-1.112.397-.264.922-.343 1.397-.3.58.051 1.12.97 1.613.664.563-.35.19-1.322.139-1.983-.173-2.217-.357-4.589-1.49-6.502-.482-.815-1.202-2.111-2.123-1.888-.814.197-.3 1.765-.905 2.343-.433.415-1.254.177-1.706.572-.35.307-.236.986-.616 1.256-.309.219-.822-.089-1.127.135-.358.263-.163.996-.55 1.214-.225.128-.56.059-.772-.09-.414-.291-.253-1.08-.676-1.359-.452-.298-1.103-.245-1.622-.089-.546.164-.964.622-1.373 1.019-.292.283-.4.762-.757.958-.367.2-.908-.118-1.248.127-1.114.802-1.961 2.407-1.696 3.755.095.482.58 1.053 1.07 1.014 1.1-.088.91-2.554 2.01-2.627.407-.027.459.838.866.866.964.066 1.346-1.708 2.311-1.749.823-.034 1.876.526 2.087 1.321.099.373-.49.64-.543 1.023zm-16.412 41.778c.195.642.39 1.307.372 1.978-.043 1.613-1.918 3.284-1.148 4.702.35.644 1.342.7 2.074.727.747.026 1.786.056 2.163-.589.401-.687-.576-1.519-.583-2.314-.008-1.03.686-1.977.704-3.005.02-1.073-.373-2.114-.623-3.157-.162-.676-.907-1.4-.568-2.006.326-.583 1.289-.356 1.93-.544.358-.106.726-.474 1.07-.33.564.24.777 1.027.838 1.636.055.546-.144 1.125-.445 1.583-.18.273-.766.291-.762.618.014 1.097 2.165 1.008 2.604 2.013.374.856-.797 2.035-.25 2.792.458.632 1.63.966 2.279.533.447-.3-.101-1.196.26-1.594.416-.457 1.417.019 1.792-.472.33-.43.22-1.137-.012-1.627-.27-.57-1.247-.614-1.454-1.21-.253-.726.633-1.506.474-2.259-.345-1.637-3.034-2.405-2.93-4.075.05-.782.975-1.252 1.603-1.722.912-.683 2.108-.899 3.056-1.532.444-.296.711-.86 1.211-1.046.47-.175 1.304.457 1.507-.003.267-.606-.693-1.32-1.338-1.468-.674-.156-1.276.538-1.929.767-.758.265-1.55.424-2.304.702-.368.136-.686.445-1.078.471-.462.03-.899-.537-1.337-.384-.693.241-.639 1.436-1.281 1.791a1.753 1.753 0 0 1-1.451.088c-.604-.25-.758-1.103-1.3-1.468-.213-.143-.575-.05-.727-.256-.608-.83-.348-2.086-.105-3.087.192-.793.473-1.76 1.198-2.137.955-.497 2.143.448 3.213.328.488-.055.907-.427 1.396-.472.702-.065 1.406.46 2.092.3.342-.081.525-.522.868-.6.804-.182 1.63.244 2.44.39.763.139 1.504.433 2.278.46.937.035 1.97.103 2.79-.353 1.052-.585 1.84-1.683 2.278-2.806.242-.623.623-1.56.121-2.001-.345-.304-.95.04-1.354.259-.941.506-1.282 1.815-2.236 2.297-.733.37-1.62.357-2.441.337-1.592-.04-3.11-.737-4.695-.89-.803-.077-1.644.208-2.42-.011-.284-.08-.476-.366-.756-.458-.665-.22-1.455-.487-2.094-.197-.57.258-.59 1.156-1.099 1.522-.372.268-.962.116-1.312.411-1.008.85-1.496 2.237-1.805 3.518-.154.635.18 1.333 0 1.961-.315 1.095-1.587 1.78-1.816 2.896-.123.602.363 1.212.287 1.822-.084.67-.403 1.315-.796 1.864-.406.568-1.365.73-1.558 1.401-.185.64.38 1.275.546 1.919.196.766-.208 2.018.525 2.313.63.252 1.048-1.314 1.697-1.12.276.083.257.518.34.794zm94.492 5.491c-.378.244-.72.736-.654 1.181.112.77.96 1.311 1.669 1.634.979.447 2.194.596 3.217.262 1.609-.526 2.843-1.954 3.842-3.32a5.84 5.84 0 0 0 .989-2.31c.128-.657.43-1.53-.039-2.008-.42-.428-1.374-.496-1.797-.071-.508.508.47 1.544.09 2.154-.246.394-.973.206-1.276.557-.438.506.044 1.591-.528 1.936-.344.206-.826-.065-1.174-.264-.31-.177-.373-.79-.73-.78-.346.008-.359.638-.667.797-.874.451-2.114-.3-2.941.232zm-43.465 111.743c.876-.405 1.8.858 2.764.86 1.447.001 3.27-2.431 4.148-1.281.82 1.073-1.257 2.427-2.173 3.418-1.125 1.218-2.431 2.382-3.973 2.99-.713.282-1.702.743-2.286.247-.552-.47-.414-1.508-.12-2.17.143-.325.678-.348.827-.67.197-.426-.123-.947-.035-1.408.135-.707.194-1.684.848-1.987zM73.015 146.585c-.26-.363-.432-.892-.276-1.31.167-.45.678-.98 1.144-.87 3.27.77 3.924 5.72 4.468 9.035.192 1.172.146 2.52-.476 3.53-.712 1.156-3.22 2.209-3.36 2.302-.14.093-1.79-.012-2.345-.596-.646-.68-.487-1.822-.555-2.757-.148-2.03-.366-4.181.324-6.095.135-.376.62-.575.716-.964.082-.333-.26-.69-.156-1.017.14-.44 1.025-.536.963-.994-.023-.171-.346-.123-.447-.264zm180.496 76.751c.568-.338 1.295.367 1.955.334.663-.034 1.339-.857 1.919-.534.596.332.685 1.92.574 1.965-.112.044-1.292.724-2.008.828-1.065.154-2.629.572-3.209-.334-.429-.67.085-1.852.77-2.26zm-24.022-3.256c-.072-1.227.953-2.377 1.902-3.157 1.1-.903 2.96-.498 4.015-1.455.296-.269.209-.829.517-1.084.792-.656 1.966-.93 2.984-.785.318.045.507.468.827.495 1.013.089 1.847-.911 2.848-1.091.588-.106 1.493-.498 1.793.02.398.687-.55 1.574-1.163 2.08-1.47 1.218-3.692 1.03-5.434 1.812-1.22.547-2.559 1.028-3.477 2-.467.493-.373 1.413-.917 1.82-.806.602-2.03.898-2.97.538-.47-.18-.896-.691-.925-1.194zm-4.782-92.631c.331-.391.891-.7 1.4-.635.72.09 1.255.789 1.7 1.364.161.209.084.613.324.723.462.212.97-.56 1.462-.434.58.15 1.34.687 1.26 1.28-.057.43-1.055.226-1.12.653-.059.38.501.584.777.852.49.476 1.384.675 1.555 1.336.116.446-.042 1.147-.478 1.297-1.11.381-2.42-.831-2.99-1.856-.19-.343.21-.845 0-1.177-.343-.542-1.287-.37-1.738-.826-.255-.258-.096-.976-.458-.987-.393-.013-.578.642-.566 1.036.017.55 1.223.971.877 1.399-.355.438-1.026-.588-1.59-.58-.539.006-1.011.81-1.504.592-.454-.201-.674-.92-.526-1.394.135-.43.854-.4 1.114-.768.373-.53.083-1.382.501-1.875zm-6.034 2.566c.96-.273 2.154.018 2.924.653.876.724 1.748 2.058 1.36 3.126-.29.8-1.477 1.413-2.285 1.145-1.257-.418-.903-2.56-1.78-3.553-.256-.29-.93-.258-.966-.643-.032-.346.412-.633.747-.728zm-11.698 20.945c.488-.644.413-1.606.901-2.249.686-.903 1.878-1.287 2.702-2.066 1.057-1 1.867-2.23 2.839-3.313.412-.459.72-1.062 1.267-1.348.675-.354 1.98.368 2.262-.34.243-.612-1.044-.919-1.217-1.553-.132-.482.354-1.013.196-1.487-.151-.455-.537-1.13-1.005-1.028-.744.16-.696 1.39-.78 2.147-.036.335.229.68.132 1.005-.35 1.175-1.532 1.924-2.398 2.792-1.27 1.272-2.956 2.121-4.083 3.521-.745.925-1.42 1.978-1.698 3.132-.113.467-.4 1.233.033 1.44.322.154.634-.369.85-.654zm16.129-14.068c.028.472 1.025.24 1.262.65.708 1.225-1.408 3.506-.199 4.24.5.303.932-.893 1.518-.885.46.006.721.814 1.172.725.508-.1.783-.756.91-1.257.098-.387-.316-.82-.155-1.185.187-.427 1.005-.359 1.145-.804.149-.472-.101-1.115-.51-1.396-.47-.323-1.152.142-1.71.027-.776-.16-1.378-1.043-2.166-.974-.509.044-1.298.35-1.267.859z"/>
    <path fill="#bb1122" stroke="#000000" d="M226.046 143.31c-.189.547-.03 1.259.345 1.699.326.383 1.024.212 1.411.533.338.28.273.971.684 1.124.413.154.899-.15 1.258-.406.466-.332.863-.823 1.034-1.369.137-.437-.213-.943-.055-1.373.259-.706 1.29-.946 1.527-1.659.348-1.045.724-2.989-.336-3.286-.718-.2-.628 1.596-1.35 1.783-.648.168-1.204-1.027-1.838-.81-.989.337-.837 1.943-1.495 2.755-.327.403-1.016.519-1.185 1.01zm7.078-.855c.724-.04 1.814.59 1.735 1.31-.129 1.165-2.237 2.121-3.202 1.455-.404-.278-.115-1.024.093-1.468.268-.57.745-1.262 1.374-1.297zm3.686.696c.962-1.007-2.14-2.789-1.366-3.946.426-.638 1.85.488 2.296-.135.464-.646-.649-1.505-.628-2.3.012-.436.49-.814.412-1.243-.186-1.016-.93-2.25-1.952-2.408-.435-.067-.671.638-1.102.727-.577.119-1.223-.593-1.738-.309-.33.182-.498.676-.427 1.046.193 1.015 1.943 1.226 2.143 2.24.051.26-.05.633-.292.743-.388.177-.868-.692-1.206-.43-.66.512-.167 1.762.233 2.496.211.389.79.459 1.043.822.428.614.157 1.615.694 2.138.47.458 1.436 1.034 1.89.559zm-8.006-9.407c.452-.277 1.046.295 1.462.623.402.317.963.725.914 1.235-.023.24-.29.479-.53.488-.41.016-.57-.665-.968-.76-.33-.08-.743.421-.998.197-.447-.393-.388-1.471.12-1.783zm-58.647 57.646c.564-.539 1.761-.326 2.285.255.441.489.489 1.49.08 2.008-.493.624-1.707.895-2.304.379-.652-.564-.686-2.046-.06-2.643zm43.733 25.938c.868-.307 1.868-.22 2.76.006 1.394.352 3.82.605 3.799 2.043-.014.921-1.556 1.333-2.472 1.238-.896-.094-1.274-1.36-2.116-1.681-.794-.303-1.878.382-2.546-.144-.22-.172-.323-.534-.241-.8.103-.336.486-.546.816-.662zm-8.132-3.73c.548-.673 2.362-.803 3.225-.897.756-.083 1.462.429 2.211.555.851.144 1.878-.273 2.58.23.55.393 1.143 1.26.82 1.854-.98 1.804-4.033 1.056-6.085.968-.807-.034-3.47-.003-3.882-.698-.326-.552.726-1.514 1.13-2.012zm10.82.718c.822-.431 1.506-1.251 2.428-1.364 1.532-.187 2.28.931 3.799.652.488-.09 1.37-.31 1.867-.305.661.006.952.494 1.612.459.861-.047 1.023-.779 1.846-1.037 1.362-.428 2.854.997 4.237.639.588-.153.863-.936 1.444-1.113.99-.302 2.087.417 3.099.199.54-.117 1.05-.412 1.461-.78.439-.39.482-1.175 1.002-1.448.915-.482 2.201-.52 3.103-.012.385.217.843.723.684 1.136-.415 1.074-3.204.995-3.308.995-.105 0-.935-.056-1.384.05-.8.188-1.449.811-2.244 1.018-.87.227-1.806.053-2.689.224-.732.142-1.398.564-2.137.663-.963.128-1.97-.338-2.912-.104-.905.225-1.516 1.188-2.425 1.396-1.062.243-2.179-.372-3.26-.235-.582.073-1.086.498-1.67.56-1.785.19-4.019 1.071-4.926-.477.002-.624-.045-.854.373-1.116zm51.223-7.534c.113-.92.037-1.873.285-2.767.254-.92.261-2.52 1.213-2.595.74-.059 1.165 1.107 1.25 1.845.062.546-.713 1.004-.591 1.54.057.248.504.274.556.524.184.891-.31 2.027-1.084 2.506-.5.31-1.39.362-1.765-.094-.205-.249.097-.638.136-.959zm-9.316 2.203c.29-.225.375-.835.741-.813.484.028.862.698.847 1.183-.034 1.159-1.054 2.46-2.187 2.703-.228.049-.485-.129-.624-.316-.389-.525-.626-1.343-.339-1.93.26-.529 1.096-.466 1.562-.827zm-10.471-16.73c.002-.107 1.966-.549 2.895-.271.298.088.42.552.729.581.398.039.663-.563 1.064-.557.527.007.873.63 1.38.773.602.168 1.336-.252 1.874.066.807.477 1.544 1.482 1.443 2.414-.027.249-.267.51-.514.547-1.036.154-1.767-1.141-2.727-1.56-.526-.231-1.111-.734-1.643-.518-.154.063-.09.36-.237.439-.497.27-1.163.064-1.69-.142-.21-.081-.31-.393-.534-.414-.342-.032-.573.468-.917.47-.427.003-.927-.202-1.148-.567-.218-.36.025-1.26.025-1.26zm-7.649 1.139c.402-.332 1.02-.281 1.541-.26.96.042 2.38-.15 2.791.719.214.45-.27 1.009-.626 1.357-.47.457-1.152.82-1.806.78-.683-.044-1.264-.583-1.767-1.046-.197-.181-.43-.39-.466-.655-.041-.315.088-.692.333-.895zm7.947-21.728c.385-.372 1.106-.589 1.573-.326.431.243.544.908.495 1.4-.055.553-.379 1.143-.854 1.43-.368.222-.951.338-1.287.07-.352-.28-.242-.88-.227-1.33.015-.427-.006-.947.3-1.244z"/>
    <path fill="#bb1122" stroke="#000000" d="M246.854 173.063c-1.578-.075-2.275 2.677-2.105 4.249.06.549.812.787 1.036 1.292.35.793.35 1.705.407 2.57.038.574.368 1.323-.044 1.722-.375.363-1.22-.4-1.567-.01-.399.448-.204 1.36.218 1.785.527.53 1.481.381 2.221.284.564-.074 1.403-.106 1.578-.646.258-.796-1.104-1.324-1.324-2.13-.219-.802-.618-2.012.06-2.492.844-.597 2.212 1.687 2.95.963.356-.35-.087-1.076-.436-1.431-.304-.31-.983-.05-1.237-.401-.22-.305-.247-.852.007-1.13.422-.461 1.498.328 1.868-.176.431-.59.15-1.75-.466-2.144-.606-.387-1.473.811-2.106.47-.872-.468-.07-2.728-1.06-2.775zm9.005 8.272c.715-.583 1.902-.62 2.756-.27.527.215 1.107.74 1.096 1.308-.007.361-.403.645-.729.801-.771.369-1.775.49-2.56.15-.41-.177-.774-.59-.862-1.029-.065-.328.039-.748.299-.96zm-2.055 6.862c.434-.412 1.253-.577 1.773-.281.374.212.7.83.477 1.198-.255.418-.98.227-1.463.145-.333-.058-.768-.128-.919-.431-.096-.192-.023-.482.132-.63zm-28.085 13.673c.025.372.7.317.948.595.249.279.134.888.487 1.01.424.146.874-.294 1.206-.594.354-.32.565-.776.758-1.211.42-.949 1.499-2.192.843-2.996-.282-.345-.937-.108-1.333.096-.423.218-.462.936-.908 1.099-.217.078-.48-.24-.681-.126-.463.261-.254 1.059-.562 1.492-.19.269-.78.306-.758.634zm-63.398-15.02c.57-.221 1.374-.246 1.828.164.787.71.02 2.24.607 3.123.494.743 1.885.663 2.227 1.487.226.546.19 1.488-.344 1.739-.691.323-1.325-.76-2.008-1.1-.425-.21-.99-.22-1.299-.581-.53-.619-.152-1.71-.647-2.358-.402-.525-1.612-.355-1.71-1.01-.096-.655.728-1.225 1.346-1.464zm168.345 67.537c-.188-1.592-1.19-4.153.275-4.8.657-.29 1.28.755 1.672 1.357.77 1.185 1.11 2.681 1.106 4.095-.005 1.71.345 4.924-1.364 4.944-1.949.023-1.46-3.661-1.689-5.596z"/>
    <ellipse cx="325.367" cy="203.674" fill="#bb1122" fill-rule="evenodd" stroke="#000000" rx=".945" ry="2.462"/>
    <ellipse cx="328.927" cy="206.666" fill="#bb1122" fill-rule="evenodd" stroke="#000000" rx=".737" ry="1.236"/>
    <ellipse cx="333.589" cy="215.574" fill="#bb1122" fill-rule="evenodd" stroke="#000000" rx=".814" ry=".963"/>
    <ellipse cx="329.5" cy="210.941" fill="#bb1122" fill-rule="evenodd" stroke="#000000" rx=".768" ry=".893"/>
  </g>
  <g fill-rule="evenodd">
    <path fill="#bb1122" d="M180 1A179 179 0 0 0 1 180a179 179 0 0 0 179 179 179 179 0 0 0 179-179A179 179 0 0 0 180 1Zm0 9a170 170 0 0 1 170 170 170 170 0 0 1-170 170A170 170 0 0 1 10 180 170 170 0 0 1 180 10Z"/>
    <path fill="#000000" d="M180 10A170 170 0 0 0 10 180a170 170 0 0 0 170 170 170 170 0 0 0 170-170A170 170 0 0 0 180 10Zm0 1a169 169 0 0 1 169 169 169 169 0 0 1-169 169A169 169 0 0 1 11 180 169 169 0 0 1 180 11Z"/>
    <path fill="#000000" d="M180 0A180 180 0 0 0 0 180a180 180 0 0 0 180 180 180 180 0 0 0 180-180A180 180 0 0 0 180 0Zm0 1a179 179 0 0 1 179 179 179 179 0 0 1-179 179A179 179 0 0 1 1 180 179 179 0 0 1 180 1Z"/>
  </g>
</svg>
