<svg xmlns="http://www.w3.org/2000/svg" xmlns:xlink="http://www.w3.org/1999/xlink" width="360" height="360" viewBox="0 0 360 360">
    <defs>
        <style>
            #light, #dark {
                display: none;
            }
            #light:target, #dark:target {
                display: block;
            }
        </style>
    </defs>
    <g id="default">
        <g fill="#bb1122" stroke="#000000" stroke-width="2">
            <g id="g-a" transform-origin="180 180">
                <animateTransform attributeName="transform" attributeType="XML" begin="0s" dur="0.5s" from="0" repeatCount="indefinite" to="-22.5" type="rotate" />
                <path id="a" d="M174 110c0-35.977551 2.48213-104.5672976 3-106.5.25995-.9701552 1.00165-2.500455 3-2.500455 2.00209 0 2.74139 1.5352929 3 2.500455.50662 1.8907429 3 70.415481 3 106.5z" />
                <use xlink:href="#a" transform="rotate(-22.5 180 180)" />
                <use xlink:href="#a" transform="rotate(-45 180 180)" />
                <use xlink:href="#a" transform="rotate(-67.5 180 180)" />
                <use xlink:href="#a" transform="rotate(-90 180 180)" />
                <use xlink:href="#a" transform="rotate(-112.5 180 180)" />
                <use xlink:href="#a" transform="rotate(-135 180 180)" />
                <use xlink:href="#a" transform="rotate(-157.5 180 180)" />
                <use xlink:href="#a" transform="rotate(180 180 180)" />
                <use xlink:href="#a" transform="rotate(157.5 180 180)" />
                <use xlink:href="#a" transform="rotate(135 180 180)" />
                <use xlink:href="#a" transform="rotate(112.5 180 180)" />
                <use xlink:href="#a" transform="rotate(90 180 180)" />
                <use xlink:href="#a" transform="rotate(67.5 180 180)" />
                <use xlink:href="#a" transform="rotate(45 180 180)" />
                <use xlink:href="#a" transform="rotate(22.5 180 180)" />
            </g>
            <g id="g-b" transform-origin="180 180">
                <animateTransform attributeName="transform" attributeType="XML" begin="0s" dur="0.5s" from="0" repeatCount="indefinite" to="-22.5" type="rotate" />
                <path id="b" d="M160.45858 112.51602c-1.8136-9.11758-4.52336-10.89615-6.64415-23.148564-2.1208-12.252416 2.33463-20.066446.71795-29.711444-1.61668-9.644997-8.04789-15.499365-10.17136-25.505751-2.12346-10.006387.90668-26.7032156 2.87414-29.1202544 1.96748-2.4170407 4.78234-1.7579844 5.29412.9861176.51178 2.7441017-1.37677 16.1448158.65881 26.3783238 2.03557 10.233508 9.22081 15.601129 11.15215 25.310661 1.93134 9.709531-2.13433 18.667292.26284 29.516351 2.39714 10.849064 5.84436 14.00418 7.62451 22.95358z" />
                <use xlink:href="#b" transform="rotate(-22.5 180 180)" />
                <use xlink:href="#b" transform="rotate(-45 180 180)" />
                <use xlink:href="#b" transform="rotate(-67.5 180 180)" />
                <use xlink:href="#b" transform="rotate(-90 180 180)" />
                <use xlink:href="#b" transform="rotate(-112.5 180 180)" />
                <use xlink:href="#b" transform="rotate(-135 180 180)" />
                <use xlink:href="#b" transform="rotate(-157.5 180 180)" />
                <use xlink:href="#b" transform="rotate(180 180 180)" />
                <use xlink:href="#b" transform="rotate(157.5 180 180)" />
                <use xlink:href="#b" transform="rotate(135 180 180)" />
                <use xlink:href="#b" transform="rotate(112.5 180 180)" />
                <use xlink:href="#b" transform="rotate(90 180 180)" />
                <use xlink:href="#b" transform="rotate(67.5 180 180)" />
                <use xlink:href="#b" transform="rotate(45 180 180)" />
                <use xlink:href="#b" transform="rotate(22.5 180 180)" />
            </g>
            <g id="g-circle">
                <circle cx="180" cy="180" r="70" stroke-width="2" />
            </g>
        </g>
        <g fill="#000000">
            <g id="g-spikes" transform-origin="180 180">
                <animateTransform attributeName="transform" attributeType="XML" begin="0s" dur="0.5s" from="0" repeatCount="indefinite" to="-22.5" type="rotate" />
                <path id="c" d="M178.5 109.07496s1-45.92318 1-46.574162c0 0-.002-.500797.5-.500797.5018 0 .5.500797.5.500797 0 .519777 1 46.574162 1 46.574162z" />
                <use xlink:href="#c" transform="rotate(-22.5 180 180)" />
                <use xlink:href="#c" transform="rotate(-45 180 180)" />
                <use xlink:href="#c" transform="rotate(-67.5 180 180)" />
                <use xlink:href="#c" transform="rotate(-90 180 180)" />
                <use xlink:href="#c" transform="rotate(-112.5 180 180)" />
                <use xlink:href="#c" transform="rotate(-135 180 180)" />
                <use xlink:href="#c" transform="rotate(-157.5 180 180)" />
                <use xlink:href="#c" transform="rotate(180 180 180)" />
                <use xlink:href="#c" transform="rotate(157.5 180 180)" />
                <use xlink:href="#c" transform="rotate(135 180 180)" />
                <use xlink:href="#c" transform="rotate(112.5 180 180)" />
                <use xlink:href="#c" transform="rotate(90 180 180)" />
                <use xlink:href="#c" transform="rotate(67.5 180 180)" />
                <use xlink:href="#c" transform="rotate(45 180 180)" />
                <use xlink:href="#c" transform="rotate(22.5 180 180)" />
                <path id="d" d="M164.73972 110.71688s-1.37273-4.37555-3.19309-9.52273c-2.8797-8.142521-3.98462-13.137691-4.34817-16.57442-1.04331-9.862236 2.28533-20.475647 2.324-20.618981 0 0 .0687-.357753.50449-.357753.586 0 .50761.858807.50761.858807 0 .383134-1.87679 9.930678-.86214 19.629173.37551 3.58925 1.80514 7.93873 4.79475 16.235874 1.82288 5.05903 3.24131 9.76352 3.24131 9.76352z" />
                <use xlink:href="#d" transform="rotate(-22.5 180 180)" />
                <use xlink:href="#d" transform="rotate(-45 180 180)" />
                <use xlink:href="#d" transform="rotate(-67.5 180 180)" />
                <use xlink:href="#d" transform="rotate(-90 180 180)" />
                <use xlink:href="#d" transform="rotate(-112.5 180 180)" />
                <use xlink:href="#d" transform="rotate(-135 180 180)" />
                <use xlink:href="#d" transform="rotate(-157.5 180 180)" />
                <use xlink:href="#d" transform="rotate(180 180 180)" />
                <use xlink:href="#d" transform="rotate(157.5 180 180)" />
                <use xlink:href="#d" transform="rotate(135 180 180)" />
                <use xlink:href="#d" transform="rotate(112.5 180 180)" />
                <use xlink:href="#d" transform="rotate(90 180 180)" />
                <use xlink:href="#d" transform="rotate(67.5 180 180)" />
                <use xlink:href="#d" transform="rotate(45 180 180)" />
                <use xlink:href="#d" transform="rotate(22.5 180 180)" />
            </g>
            <g id="g-face">
                <path d="M156.64258 152.61328c-7.57549.15102-15.2287 3.95928-21.64258 12.7461 12.62198-11.02661 28.5359-12.68011 37.31641-4.41016 6.37284 8.56008 5.80502 16.6392-1.64649 27.2207.54878 0 1.64653.55023 2.19531 1.10156 5.53486-10.58856 6.48637-19.49196 2.74415-29.42578-5.65932-4.65185-12.28255-7.36568-18.9668-7.23242zm46.71484 0c-6.68425-.13326-13.30748 2.58057-18.9668 7.23242-3.74222 9.93382-2.79071 18.83722 2.74415 29.42578.54878-.55133 1.64653-1.10156 2.19531-1.10156-7.45151-10.5815-8.01933-18.66062-1.64649-27.2207 8.78051-8.26995 24.69443-6.61645 37.31641 4.41016-6.41387-8.78683-14.06709-12.59508-21.64258-12.7461zm-48.60156 9.4375c-10.97563.00001-17.56045 8.82171-16.46289 9.37305 1.09757.55133 6.58482-7.71875 16.46289-7.71875 3.29269 0 6.58622.001 9.87891 2.75781 3.29268 2.75664 5.48836 3.85882 6.58593 4.41016 1.09746.55133 1.64449-1.10296 1.09571-1.6543-.54878-.55134-2.19559.00079-5.48829-2.75586-3.29267-2.75665-4.9381-4.41211-12.07226-4.41211zm50.48828 0c-7.13416 0-8.77958 1.65546-12.07226 4.41211-3.2927 2.75665-4.93951 2.20452-5.48829 2.75586-.54878.55134-.002 2.20563 1.09571 1.6543 1.09757-.55134 3.29325-1.65352 6.58593-4.41016 3.29269-2.75665 6.58622-2.75781 9.87891-2.75781 9.87807 0 15.36532 8.27008 16.46289 7.71875 1.09756-.55134-5.48726-9.37304-16.46289-9.37305zm-49.5957 3.44727c-4.87044 0-9.94659 2.06647-13.51367 5.92578 3.48977 2.49796 10.05475 5.07617 13.79882 5.07617 4.07535 0 8.15649-1.92561 11.99414-4.52344-2.74391-4.41064-7.40886-6.47851-12.27929-6.47851zm48.70312 0c-4.87043 0-9.53538 2.06787-12.27929 6.47851 3.83765 2.59783 7.91879 4.52344 11.99414 4.52344 3.74407 0 10.30905-2.57821 13.79882-5.07617-3.56708-3.85931-8.64323-5.92578-13.51367-5.92578zm-51.34961 1.32226c-1.30971.93017-2.0882 2.44137-2.08789 4.05274.00009 1.69098.85815 3.2655 2.27539 4.17773-2.63605-.55911-5.15544-1.90402-7.21289-4.17773.49431-1.73808 3.43821-3.47297 7.02539-4.05274zm53.9961 0c3.58718.57977 6.53108 2.31466 7.02539 4.05274-2.05745 2.27371-4.57684 3.61862-7.21289 4.17773 1.41724-.91223 2.2753-2.48675 2.27539-4.17773.00031-1.61137-.77818-3.12257-2.08789-4.05274zm-48.01367.22461c2.596.67281 5.04286 2.19071 6.74804 4.93164-2.1291 1.71118-4.75448 2.83816-7.49023 3.22656 1.5696-.87115 2.54578-2.52855 2.55078-4.33007-.003-1.4834-.66665-2.88775-1.80859-3.82813zm42.03124 0c-1.14194.94038-1.80579 2.34473-1.80859 3.82813.005 1.80152.98118 3.45892 2.55078 4.33007-2.73575-.3884-5.36113-1.51538-7.49023-3.22656 1.70518-2.74093 4.15203-4.25883 6.74804-4.93164zm-30.89453 6.0332c-1.09757 0-2.19373 1.10328-6.58398 3.3086-4.39025 2.20532-10.9775 2.20557-21.95313-2.20508 9.32929 7.16729 18.66062 6.61462 24.14844 3.30664 5.48782-3.30797 5.48623-4.41016 4.38867-4.41016zm19.75782 0c-1.09756 0-1.09915 1.10219 4.38867 4.41016 5.48782 3.30798 14.81915 3.86065 24.14844-3.30664-10.97563 4.41065-17.56288 4.4104-21.95313 2.20508-4.39025-2.20532-5.48641-3.3086-6.58398-3.3086zm-21.4043 17.64258c-3.45817.63521-5.16687 3.5332-3.26563 6.50391 1.90123 2.97071 6.19657 3.05156 8.20704.1543 2.19513 1.65398 5.48642 1.65429 6.58398 1.65429 1.09756 0 4.38885-.00031 6.58398-1.65429 2.01047 2.89726 6.3058 2.8164 8.20704-.1543 1.90123-2.97071.19253-5.86869-3.26563-6.50391 2.47483.88361 2.97392 3.11774.87305 4.70118-2.10088 1.58343-5.11155.17916-5.26367-2.45508-.54878 1.10266-2.74452 4.41211-7.13477 4.41211s-6.58599-3.30945-7.13477-4.41211c-.15212 2.63424-3.16279 4.03851-5.26367 2.45508-2.10088-1.58344-1.60178-3.81758.87305-4.70118zm6.03711 12.88672c-5.48781 0-7.68206 4.96155-12.6211 8.26953 2.7439-1.10265 4.93782-3.30835 8.7793-5.51367 3.84147-2.20532 7.13496.55078 9.33008.55078 2.19513 0 5.48861-2.7561 9.33008-.55078 3.84148 2.20532 6.0354 4.41102 8.7793 5.51367-4.93904-3.30797-7.13329-8.26953-12.6211-8.26953-1.09756 0-3.29315.54968-5.48828 1.65235-2.19512-1.10265-4.39072-1.65235-5.48828-1.65235zm23.59766 8.26953c-.73727-.0673-1.41373-.10214-2.03907-.11133-9.39969-.0599-6.85381 6.17579-16.07031 6.17579-9.21649 0-6.67063-6.23565-16.07031-6.17579-.62534.009-1.3018.044-2.03907.11133 11.52441 1.10266 6.03618 7.71875 18.10938 7.71875 12.0732 0 6.58497-6.6161 18.10938-7.71875zM180 219.5957c-4.34963 0-9.87888 4.68497-9.87891 9.92383 2.70549-10.09702 16.80573-10.2719 19.75782 0-.00004-5.72587-5.44987-9.92383-9.87891-9.92383zm-16.07031-7.83008c10.80733-1.68153 11.6272 1.12237 16.07031 1.2129 4.30132 0 6.69327-3.15829 16.07031-1.2129-10.622-3.13112-12.81892-.99218-16.07031-.99218-3.25139 0-5.44831-2.13893-16.07031.99218z" />
            </g>
        </g>
    </g>
    <g id="dark">
        <g fill="#bb1122" stroke="#000000">
            <use xlink:href="#g-a" />
            <use xlink:href="#g-b" />
        </g>
        <g fill="#bb1122" stroke="#000000">
            <use xlink:href="#g-circle" />
        </g>
        <g fill="#000000">
            <use xlink:href="#g-spikes" />
        </g>
        <g fill="#000000">
            <use xlink:href="#g-face" />
        </g>
    </g>
    <g id="light">
        <g fill="#cc9933" stroke="#000000">
            <use xlink:href="#g-a" />
            <use xlink:href="#g-b" />
        </g>
        <g fill="#cc9933" stroke="#000000">
            <use xlink:href="#g-circle" />
        </g>
        <g fill="#000000">
            <use xlink:href="#g-spikes" />
        </g>
        <g fill="#000000">
            <use xlink:href="#g-face" />
        </g>
    </g>
</svg>