<svg xmlns="http://www.w3.org/2000/svg" width="1024" height="1024"><circle cx="512" cy="512" r="480" style="fill:#000;"/><g transform-origin="512 512"><animateTransform attributeName="transform" calcMode="spline" dur="13s" keySplines=".8 .2 .2 .8" keyTimes="0;1" repeatCount="indefinite" type="rotate" values="0;-3600"/><path d="M512 128c142 50 262 188 256 384H640c0 69.636-55.717 127.23-128 128-72.552-.79-127.723-58.39-128-128H256c-6 196 116 334 256 384-202 0-382-158-384-384H0c0 278.544 222.867 508.924 512 512 290.208-3.16 510.892-233.56 512-512H896c-2-226-182-384-384-384ZM384 512h32c.5-56.5 45.5-96 96-96-35 13-65.5 47-64 96h128c1.5 49-29 83.5-64 96 50.5 0 95.5-39.5 96-96h32c-.277-69.61-55.448-127.21-128-128-72.283.77-128 58.364-128 128Z" style="fill:#000"/></g><g transform-origin="512 512"><animateTransform attributeName="transform" calcMode="spline" dur="13s" keySplines=".8 .2 .2 .8" keyTimes="0;1" repeatCount="indefinite" type="rotate" values="0;-3600"/><path d="M512 896c-142-50-262-188-256-384h128c0-69.636 55.717-127.23 128-128 72.552.79 127.723 58.39 128 128h128c6-196-116-334-256-384 202 0 382 158 384 384h128C1024 233.456 801.133 3.076 512 0 221.792 3.16 1.108 233.56 0 512h128c2 226 182 384 384 384zm128-384h-32c-.5 56.5-45.5 96-96 96 35-13 65.5-47 64-96H448c-1.5-49 29-83.5 64-96-50.5 0-95.5 39.5-96 96h-32c.277 69.61 55.448 127.21 128 128 72.283-.77 128-58.364 128-128z" style="fill:#b12;"/></g></svg>